<?xml version="1.0" encoding="UTF-8" standalone="no"?>
<svg
   xmlns:dc="http://purl.org/dc/elements/1.1/"
   xmlns:cc="http://creativecommons.org/ns#"
   xmlns:rdf="http://www.w3.org/1999/02/22-rdf-syntax-ns#"
   xmlns:svg="http://www.w3.org/2000/svg"
   xmlns="http://www.w3.org/2000/svg"
   xmlns:sodipodi="http://sodipodi.sourceforge.net/DTD/sodipodi-0.dtd"
   xmlns:inkscape="http://www.inkscape.org/namespaces/inkscape"
   width="251.68285"
   height="40.001373"
   viewBox="0 0 12584.142 2000.0686"
   version="1.1"
   id="svg3791"
   sodipodi:docname="face-recognition-logo.svg"
   style="fill:none"
   inkscape:version="0.92.3 (2405546, 2018-03-11)">
  <metadata
     id="metadata3795">
    <rdf:RDF>
      <cc:Work
         rdf:about="">
        <dc:format>image/svg+xml</dc:format>
        <dc:type
           rdf:resource="http://purl.org/dc/dcmitype/StillImage" />
        <dc:title />
      </cc:Work>
    </rdf:RDF>
  </metadata>
  <sodipodi:namedview
     pagecolor="#ffffff"
     bordercolor="#666666"
     borderopacity="1"
     objecttolerance="10"
     gridtolerance="10"
     guidetolerance="10"
     inkscape:pageopacity="0"
     inkscape:pageshadow="2"
     inkscape:window-width="1920"
     inkscape:window-height="1020"
     id="namedview3793"
     showgrid="false"
     scale-x="50"
     showguides="true"
     inkscape:guide-bbox="true"
     inkscape:zoom="5.12"
     inkscape:cx="154.87891"
     inkscape:cy="9.1834236"
     inkscape:window-x="0"
     inkscape:window-y="0"
     inkscape:window-maximized="1"
     inkscape:current-layer="svg3791" />
  <path
     d="M 1526.4406,473.62788 C 1807.7531,858.3596 1418.1003,968.09138 1234.7671,819.47149 909.75908,1252.8197 927.81156,402.7842 515.99479,893.08564 c -263.98121,-179.36099 -180.12003,-154.32533 0,-419.45776 180.13267,-265.13244 821.54621,-258.35168 1010.44581,0 z"
     id="path3774"
     inkscape:connector-curvature="0"
     style="opacity:0.1;fill:#40bfef;stroke-width:1.26506555" />
  <path
     d="m 1000.0342,1833.3962 c -286.17051,0 -444.51877,-204.0931 -561.52467,-403.771 -1.07531,-1.8343 -32.82845,-60.584 -45.83332,-91.0847 -39.49535,-95.4112 -59.33158,-195.8321 -59.33158,-299.0109 V 731.27112 c 0,-270.83788 175.33808,-370.17082 299.26389,-392.00586 27.41398,-65.92256 111.08542,-165.67297 365.75574,-172.33987 197.17304,-5.83195 388.93174,63.83521 513.09794,184.83872 101.5974,98.91547 155.2615,229.67264 155.2615,378.25459 v 308.2585 c 0,102.7613 -19.8362,203.3466 -59.0027,299.0109 -15.0036,34.7514 -47.3388,92.3371 -51.0074,98.8395 -124.9126,207.0153 -278.0867,397.2686 -556.6794,397.2686 z m 1.6698,-1541.55824 c 5.579,-0.0886 11.335,-0.16446 16.914,-0.16446 156.0079,0 310.0928,56.58638 405.6812,149.6699 77.9154,75.84068 117.4234,173.01036 117.4234,288.6753 v 106.11369 c 0,0 -98.1691,-1.0247 -120.1686,-0.0253 -9.5006,0.50603 -18.6724,0.92349 -40.9249,0.92349 -61.0773,0 -155.0085,-120.42158 -199.2478,-201.8412 -12.8405,-23.50491 -39.5966,-36.50979 -65.6696,-31.66459 -26.4272,4.57955 -47.0098,25.57962 -51.0074,52.08275 -0.8349,5.16146 -13.9157,96.08172 18.0019,199.00746 C 890.11261,794.7774 807.61769,587.26871 803.69598,577.18614 c -10.75305,-28.17301 -40.00137,-44.92248 -69.75571,-39.25499 -29.57722,5.50303 -51.1719,31.33567 -51.1719,61.50749 0,157.24764 -183.08028,242.33594 -184.75017,243.08234 l -39.67244,18.60911 V 731.27112 c 0,-256.8336 202.09421,-271.00234 224.76418,-271.76138 31.75315,-0.67048 58.24361,-28.33747 61.07736,-60.00206 3.17533,-34.9158 61.00146,-102.4197 257.5167,-107.66972 z M 508.01222,1290.1264 c -32.9929,-79.5852 -49.66646,-163.9271 -49.66646,-250.6727 v -42.20257 l 90.59134,-40.79835 c 7.83075,-3.42834 144.9259,-66.17558 216.26294,-194.68093 76.33405,106.17694 212.16414,233.6829 424.84696,233.6829 23.4163,0 44.9098,-13.09344 55.5743,-33.92907 8.0079,-15.40849 8.9188,-33.24591 3.4284,-49.16044 39.9128,29.41278 84.4936,49.57792 131.5794,49.57792 25.0103,0 35.6495,-0.48073 46.4152,-0.9741 l 0.4176,-0.0254 c 18.8367,-0.9994 114.2607,0.58193 114.2607,0.58193 v 76.67571 c 0,86.5051 -16.6736,171.0875 -49.249,250.5968 -12.5116,29.0839 -43.7587,84.2408 -43.7587,84.2408 -124.8366,207.0153 -243.5124,335.3561 -448.6807,335.3561 -210.08947,0 -333.3448,-136.7662 -452.67844,-340.2646 0,0 -28.17301,-51.7539 -39.34354,-78.004 z"
     id="path3776"
     inkscape:connector-curvature="0"
     style="clip-rule:evenodd;fill:#40bfef;fill-rule:evenodd;stroke-width:1.26506555" />
  <path
     d="m 1000.1101,1537.9149 c -82.53292,0 -159.89167,-33.0689 -218.10999,-93.0962 -22.54346,-23.3151 -21.91093,-60.4196 1.41688,-83.0516 23.40371,-22.6194 60.50809,-21.9109 83.05155,1.3284 71.48885,74.0442 195.62976,74.1328 267.46016,0.013 22.7079,-23.2645 59.8123,-23.7958 83.0516,-1.3409 23.3278,22.5435 23.9603,59.7238 1.4168,83.0516 -58.4713,60.0273 -135.8301,93.0962 -218.287,93.0962 z"
     id="path3778"
     inkscape:connector-curvature="0"
     style="fill:#40bfef;stroke:#ffffff;stroke-width:7.59039307" />
  <path
     d="m 117.19567,113.40047 h -3.7952 v 3.7952 187.50801 c 0,30.26036 -24.542269,54.80264 -54.802636,54.80264 -30.260367,0 -54.8026375,-24.54228 -54.8026375,-54.80264 V 58.597834 c 0,-30.260367 24.5422705,-54.8026375 54.8026375,-54.8026375 H 304.67825 c 30.27302,0 54.80264,24.5296195 54.80264,54.8026375 0,30.260367 -24.52962,54.802636 -54.80264,54.802636 z M 1882.8728,1886.668 h 3.7951 v -3.7951 -187.508 c 0,-30.2604 24.5423,-54.8027 54.8026,-54.8027 30.2605,0 54.8028,24.5423 54.8028,54.8027 v 246.1059 c 0,30.2603 -24.5423,54.8026 -54.8028,54.8026 h -246.0804 c -30.2731,0 -54.8027,-24.5423 -54.8027,-54.8026 0,-30.2605 24.5296,-54.8028 54.8027,-54.8028 z m -1769.47233,-3.7951 v 3.7951 h 3.7952 187.48258 c 30.27302,0 54.80264,24.5423 54.80264,54.8028 0,30.2603 -24.52962,54.8026 -54.80264,54.8026 H 58.597834 c -30.260367,0 -54.8026375,-24.5423 -54.8026375,-54.8026 v -246.1059 c 0,-30.2604 24.5422705,-54.8027 54.8026375,-54.8027 30.260367,0 54.802636,24.5423 54.802636,54.8027 z M 1886.6679,117.19567 v -3.7952 h -3.7951 -187.4827 c -30.2731,0 -54.8027,-24.542269 -54.8027,-54.802636 0,-30.260367 24.5296,-54.8026375 54.8027,-54.8026375 h 246.0804 c 30.2605,0 54.8028,24.5296195 54.8028,54.8026375 V 304.70368 c 0,30.26036 -24.5423,54.80264 -54.8028,54.80264 -30.2603,0 -54.8026,-24.54228 -54.8026,-54.80264 z"
     id="path3780"
     inkscape:connector-curvature="0"
     style="fill:#0082ca;stroke:#ffffff;stroke-width:7.59039307" />
  <defs
     id="defs3789">
    <linearGradient
       id="paint0_linear"
       x1="1691.21"
       y1="845.72498"
       x2="4914.21"
       y2="845.72498"
       gradientUnits="userSpaceOnUse"
       gradientTransform="matrix(3.285232,0,0,3.285232,-3366.1529,-1690.547)">
      <stop
         offset="0.2297"
         stop-color="#0082CA"
         id="stop3784" />
      <stop
         offset="1"
         stop-color="#40BFEF"
         id="stop3786" />
    </linearGradient>
  </defs>
  <text
     xml:space="preserve"
     style="font-style:normal;font-weight:normal;font-size:2541.07885742px;line-height:1.25;font-family:sans-serif;letter-spacing:0px;word-spacing:0px;fill:#40bfef;fill-opacity:1;stroke:none;stroke-width:63.52697372"
     x="3191.6846"
     y="1058.9325"
     id="text16"
     transform="scale(0.70888772,1.4106606)"><tspan
       sodipodi:role="line"
       id="tspan18"
       style="font-style:normal;font-variant:normal;font-weight:bold;font-stretch:normal;font-size:931.72894287px;font-family:'Bitstream Vera Sans';-inkscape-font-specification:'Bitstream Vera Sans, Bold';font-variant-ligatures:normal;font-variant-caps:normal;font-variant-numeric:normal;font-feature-settings:normal;text-align:start;writing-mode:lr-tb;text-anchor:start;fill:#40bfef;fill-opacity:1;stroke-width:63.52697372"
       x="3191.6846"
       y="1058.9325">DEER FACIAL RECOGNITION</tspan></text>
</svg>
