<?xml version="1.0" standalone="no"?>
<!DOCTYPE svg PUBLIC "-//W3C//DTD SVG 20010904//EN"
 "http://www.w3.org/TR/2001/REC-SVG-20010904/DTD/svg10.dtd">
<svg version="1.0" xmlns="http://www.w3.org/2000/svg"
 width="2500.000000pt" height="1500.000000pt" viewBox="0 0 2500.000000 1500.000000"
 preserveAspectRatio="xMidYMid meet">

<g transform="translate(0.000000,1500.000000) scale(0.100000,-0.100000)"
fill="#000000" stroke="none">
<path d="M5545 9585 c-445 -78 -779 -389 -908 -845 -22 -74 -22 -86 -25 -1162
-3 -1069 -2 -1089 18 -1190 99 -484 482 -836 980 -897 107 -14 469 -14 665 -1
681 46 1213 286 1549 699 255 314 394 701 426 1191 35 517 -85 1018 -328 1381
-304 452 -778 719 -1446 815 -158 23 -817 29 -931 9z m790 -525 c741 -82 1188
-475 1306 -1148 27 -150 36 -437 20 -593 -76 -736 -491 -1168 -1231 -1285
-139 -21 -712 -32 -803 -14 -191 36 -359 189 -417 379 -19 61 -20 98 -20 1140
0 706 4 1091 11 1121 40 175 208 346 388 396 57 15 614 19 746 4z"/>
<path d="M19825 9370 c-202 -45 -324 -182 -341 -383 -18 -209 109 -389 311
-442 304 -79 574 136 552 439 -15 224 -176 378 -407 391 -41 2 -93 0 -115 -5z
m267 -88 c77 -38 130 -92 167 -171 23 -49 26 -68 26 -161 0 -95 -3 -111 -28
-162 -36 -73 -119 -150 -195 -179 -44 -17 -78 -22 -147 -22 -69 0 -103 5 -147
22 -80 31 -157 104 -194 183 -26 56 -29 74 -29 163 0 86 4 108 26 155 68 146
183 212 360 207 85 -2 103 -6 161 -35z"/>
<path d="M19750 8955 l0 -205 30 0 30 0 0 70 0 70 63 0 63 0 53 -70 c48 -63
57 -70 88 -70 40 0 43 -6 -36 88 -36 43 -42 55 -30 63 8 5 19 9 25 9 6 0 21
11 34 25 30 32 39 118 17 162 -27 51 -68 63 -211 63 l-126 0 0 -205z m254 144
c50 -23 55 -113 7 -138 -11 -6 -60 -11 -110 -11 l-91 0 0 80 0 80 85 0 c46 0
95 -5 109 -11z"/>
<path d="M10218 8649 c-658 -64 -1185 -463 -1387 -1052 -71 -208 -86 -306 -86
-577 1 -258 12 -335 75 -532 163 -502 567 -882 1090 -1023 143 -38 259 -55
425 -62 586 -23 1097 203 1410 621 51 68 155 242 155 258 0 4 -135 8 -300 8
-165 0 -300 -4 -300 -8 0 -5 -32 -43 -71 -85 -191 -208 -459 -307 -824 -307
-263 1 -470 58 -659 184 -101 67 -236 207 -293 303 -75 127 -133 287 -149 411
l-7 52 1382 0 1381 0 0 128 c0 402 -88 722 -279 1012 -74 113 -278 317 -393
394 -328 217 -747 316 -1170 275z m462 -508 c119 -27 171 -46 278 -98 172 -86
330 -236 425 -407 43 -75 117 -273 117 -310 0 -15 -91 -16 -1095 -16 l-1095 0
6 28 c105 440 429 749 854 811 41 6 86 13 100 15 61 11 328 -4 410 -23z"/>
<path d="M13988 8649 c-658 -64 -1184 -463 -1387 -1052 -71 -208 -86 -306 -86
-577 1 -258 12 -335 75 -532 163 -502 567 -882 1090 -1023 143 -38 259 -55
425 -62 586 -23 1097 203 1410 621 51 68 155 242 155 258 0 4 -135 8 -300 8
-165 0 -300 -4 -300 -8 0 -5 -32 -43 -71 -85 -191 -208 -459 -307 -824 -307
-263 1 -470 58 -659 184 -101 67 -236 207 -293 303 -75 127 -133 287 -149 411
l-7 52 1382 0 1381 0 0 129 c0 400 -89 722 -279 1011 -73 112 -278 317 -391
392 -330 219 -748 318 -1172 277z m352 -489 c447 -58 776 -326 904 -738 14
-46 26 -90 26 -98 0 -12 -146 -14 -1095 -14 l-1095 0 6 28 c105 440 429 749
854 811 41 6 86 13 100 15 52 7 228 5 300 -4z"/>
<path d="M17535 8649 c-560 -61 -936 -364 -1070 -862 -61 -225 -60 -210 -60
-1302 l0 -1000 265 0 265 0 5 1020 c6 1107 4 1056 63 1217 112 306 393 465
787 445 229 -12 375 -71 510 -207 98 -97 154 -197 189 -335 16 -62 41 -252 41
-307 0 -5 118 -8 262 -8 l261 0 -6 123 c-3 67 -15 171 -27 231 -106 547 -442
876 -990 970 -117 20 -375 28 -495 15z"/>
</g>
</svg>
