<?xml version="1.0" encoding="UTF-8" standalone="no"?>
<svg
   xmlns:dc="http://purl.org/dc/elements/1.1/"
   xmlns:cc="http://creativecommons.org/ns#"
   xmlns:rdf="http://www.w3.org/1999/02/22-rdf-syntax-ns#"
   xmlns:svg="http://www.w3.org/2000/svg"
   xmlns="http://www.w3.org/2000/svg"
   xmlns:xlink="http://www.w3.org/1999/xlink"
   xmlns:sodipodi="http://sodipodi.sourceforge.net/DTD/sodipodi-0.dtd"
   xmlns:inkscape="http://www.inkscape.org/namespaces/inkscape"
   width="5398"
   height="3394"
   viewBox="0 0 5398 3394"
   fill="none"
   version="1.1"
   id="svg19"
   sodipodi:docname="face-recognition-logo-mobile-login.svg"
   inkscape:version="0.92.3 (2405546, 2018-03-11)">
  <metadata
     id="metadata23">
    <rdf:RDF>
      <cc:Work
         rdf:about="">
        <dc:format>image/svg+xml</dc:format>
        <dc:type
           rdf:resource="http://purl.org/dc/dcmitype/StillImage" />
      </cc:Work>
    </rdf:RDF>
  </metadata>
  <sodipodi:namedview
     pagecolor="#ffffff"
     bordercolor="#666666"
     borderopacity="1"
     objecttolerance="10"
     gridtolerance="10"
     guidetolerance="10"
     inkscape:pageopacity="0"
     inkscape:pageshadow="2"
     inkscape:window-width="1920"
     inkscape:window-height="1020"
     id="namedview21"
     showgrid="false"
     inkscape:snap-text-baseline="true"
     inkscape:zoom="0.1267136"
     inkscape:cx="3423.4355"
     inkscape:cy="575.55828"
     inkscape:window-x="0"
     inkscape:window-y="0"
     inkscape:window-maximized="1"
     inkscape:current-layer="svg19" />
  <path
     opacity="0.1"
     d="M3116.61 962.479C3338.98 1266.6 3030.97 1353.34 2886.05 1235.86C2629.14 1578.41 2643.41 906.484 2317.88 1294.05C2109.21 1152.27 2175.5 1172.06 2317.88 962.479C2460.27 752.901 2967.29 758.265 3116.61 962.479Z"
     fill="#40BFEF"
     id="path2" />
  <path
     fill-rule="evenodd"
     clip-rule="evenodd"
     d="M2700.5 2037.34C2474.29 2037.34 2349.12 1876.01 2256.63 1718.17C2255.78 1716.72 2230.68 1670.28 2220.4 1646.17C2189.18 1570.75 2173.5 1491.37 2173.5 1409.81V1166.14C2173.5 952.05 2312.1 873.527 2410.06 856.267C2431.73 804.16 2497.87 725.308 2699.18 720.038C2855.04 715.427 3006.62 770.498 3104.77 866.149C3185.08 944.342 3227.5 1047.7 3227.5 1165.15V1408.82C3227.5 1490.05 3211.82 1569.56 3180.86 1645.18C3169 1672.65 3143.44 1718.17 3140.54 1723.31C3041.8 1886.95 2920.72 2037.34 2700.5 2037.34ZM2701.82 818.785C2706.23 818.719 2710.78 818.653 2715.19 818.653C2838.51 818.653 2960.31 863.382 3035.87 936.964C3097.46 996.91 3128.69 1073.72 3128.69 1165.15V1249.03C3128.69 1249.03 3051.09 1248.22 3033.7 1249.01C3026.19 1249.41 3018.94 1249.74 3001.35 1249.74C2953.07 1249.74 2878.82 1154.55 2843.85 1090.19C2833.7 1071.61 2812.55 1061.33 2791.94 1065.16C2771.05 1068.78 2754.78 1085.38 2751.62 1106.33C2750.96 1110.41 2740.62 1182.28 2765.85 1263.64C2613.61 1216.34 2548.4 1052.31 2545.3 1044.34C2536.8 1022.07 2513.68 1008.83 2490.16 1013.31C2466.78 1017.66 2449.71 1038.08 2449.71 1061.93C2449.71 1186.23 2304.99 1253.49 2303.67 1254.08L2272.31 1268.79V1166.14C2272.31 963.117 2432.06 951.918 2449.98 951.325C2475.08 950.798 2496.02 928.928 2498.26 903.895C2500.77 876.293 2546.48 822.935 2701.82 818.785ZM2311.57 1607.9C2285.49 1544.99 2272.31 1478.32 2272.31 1409.75V1376.39L2343.92 1344.14C2350.11 1341.43 2458.48 1291.83 2514.87 1190.25C2575.21 1274.18 2682.58 1374.97 2850.7 1374.97C2869.21 1374.97 2886.2 1364.62 2894.63 1348.15C2900.96 1335.97 2901.68 1321.87 2897.34 1309.29C2928.89 1332.54 2964.13 1348.48 3001.35 1348.48C3021.12 1348.48 3029.53 1348.1 3038.04 1347.71L3038.37 1347.69C3053.26 1346.9 3128.69 1348.15 3128.69 1348.15V1408.76C3128.69 1477.14 3115.51 1544 3089.76 1606.85C3079.87 1629.84 3055.17 1673.44 3055.17 1673.44C2956.49 1837.08 2862.68 1938.53 2700.5 1938.53C2534.43 1938.53 2437 1830.42 2342.67 1669.56C2342.67 1669.56 2320.4 1628.65 2311.57 1607.9Z"
     fill="#40BFEF"
     id="path4" />
  <path
     d="M2700.56 1803.77C2635.32 1803.77 2574.17 1777.63 2528.15 1730.18C2510.33 1711.75 2510.83 1682.42 2529.27 1664.53C2547.77 1646.65 2577.1 1647.21 2594.92 1665.58C2651.43 1724.11 2749.56 1724.18 2806.34 1665.59C2824.29 1647.2 2853.62 1646.78 2871.99 1664.53C2890.43 1682.35 2890.93 1711.74 2873.11 1730.18C2826.89 1777.63 2765.74 1803.77 2700.56 1803.77Z"
     fill="#40BFEF"
     stroke="white"
     stroke-width="6"
     id="path6" />
  <path
     d="M2002.64 677.727H1999.64V680.727V828.948C1999.64 852.872 1980.24 872.267 1956.32 872.267C1932.4 872.267 1913 852.872 1913 828.948V634.408C1913 610.485 1932.4 591.09 1956.32 591.09H2150.84C2174.77 591.09 2194.16 610.485 2194.16 634.408C2194.16 658.331 2174.77 677.727 2150.84 677.727H2002.64ZM3398.36 2079.45H3401.36V2076.45V1928.23C3401.36 1904.31 3420.76 1884.91 3444.68 1884.91C3468.6 1884.91 3488 1904.31 3488 1928.23V2122.77C3488 2146.69 3468.6 2166.09 3444.68 2166.09H3250.16C3226.23 2166.09 3206.84 2146.69 3206.84 2122.77C3206.84 2098.85 3226.23 2079.45 3250.16 2079.45H3398.36ZM1999.64 2076.45V2079.45H2002.64H2150.84C2174.77 2079.45 2194.16 2098.85 2194.16 2122.77C2194.16 2146.69 2174.77 2166.09 2150.84 2166.09H1956.32C1932.4 2166.09 1913 2146.69 1913 2122.77V1928.23C1913 1904.31 1932.4 1884.91 1956.32 1884.91C1980.24 1884.91 1999.64 1904.31 1999.64 1928.23V2076.45ZM3401.36 680.727V677.727H3398.36H3250.16C3226.23 677.727 3206.84 658.331 3206.84 634.408C3206.84 610.485 3226.23 591.09 3250.16 591.09H3444.68C3468.6 591.09 3488 610.485 3488 634.408V828.948C3488 852.872 3468.6 872.267 3444.68 872.267C3420.76 872.267 3401.36 852.872 3401.36 828.948V680.727Z"
     fill="#0082CA"
     stroke="white"
     stroke-width="6"
     id="path8" />
  <defs
     id="defs17">
    <linearGradient
       inkscape:collect="always"
       id="linearGradient3740">
      <stop
         style="stop-color:#0082ca;stop-opacity:1"
         offset="0"
         id="stop3736" />
      <stop
         style="stop-color:#40bfef;stop-opacity:1"
         offset="1"
         id="stop3738" />
    </linearGradient>
    <linearGradient
       id="paint0_linear"
       x1="1089"
       y1="2675.09"
       x2="4312"
       y2="2675.09"
       gradientUnits="userSpaceOnUse">
      <stop
         offset="0.229657"
         stop-color="#0082CA"
         id="stop12" />
      <stop
         offset="1"
         stop-color="#40BFEF"
         id="stop14" />
    </linearGradient>
    <linearGradient
       inkscape:collect="always"
       xlink:href="#linearGradient3740"
       id="linearGradient3742"
       x1="1167.9883"
       y1="2407.5234"
       x2="5697.8887"
       y2="2391.7397"
       gradientUnits="userSpaceOnUse" />
  </defs>
  <text
     xml:space="preserve"
     style="font-style:normal;font-weight:bold;font-size:266.66666667px;line-height:1.25;font-family:'DejaVu Sans Mono';letter-spacing:0px;word-spacing:0px;fill:url(#linearGradient3742);fill-opacity:1;stroke:none;-inkscape-font-specification:'DejaVu Sans Mono, Bold';font-stretch:normal;font-variant:normal;text-anchor:start;text-align:start;writing-mode:lr;font-variant-ligatures:normal;font-variant-caps:normal;font-variant-numeric:normal;font-feature-settings:normal;"
     x="1041.7194"
     y="2699.5205"
     id="text3730"><tspan
       sodipodi:role="line"
       id="tspan3734"
       style="-inkscape-font-specification:'DejaVu Sans Mono, Bold';font-family:'DejaVu Sans Mono';font-weight:bold;font-style:normal;font-stretch:normal;font-variant:normal;font-size:266.66666667px;text-anchor:start;text-align:start;writing-mode:lr;font-variant-ligatures:normal;font-variant-caps:normal;font-variant-numeric:normal;font-feature-settings:normal;fill-opacity:1;fill:url(#linearGradient3742);">DEER FACIAL RECOGNITION</tspan></text>
</svg>
