<?xml version="1.0" encoding="utf-8"?>
<!-- Generator: Adobe Illustrator 27.2.0, SVG Export Plug-In . SVG Version: 6.00 Build 0)  -->
<!DOCTYPE svg PUBLIC "-//W3C//DTD SVG 1.1//EN" "http://www.w3.org/Graphics/SVG/1.1/DTD/svg11.dtd" [
	<!ENTITY ns_extend "http://ns.adobe.com/Extensibility/1.0/">
	<!ENTITY ns_ai "http://ns.adobe.com/AdobeIllustrator/10.0/">
	<!ENTITY ns_graphs "http://ns.adobe.com/Graphs/1.0/">
	<!ENTITY ns_vars "http://ns.adobe.com/Variables/1.0/">
	<!ENTITY ns_imrep "http://ns.adobe.com/ImageReplacement/1.0/">
	<!ENTITY ns_sfw "http://ns.adobe.com/SaveForWeb/1.0/">
	<!ENTITY ns_custom "http://ns.adobe.com/GenericCustomNamespace/1.0/">
	<!ENTITY ns_adobe_xpath "http://ns.adobe.com/XPath/1.0/">
]>
<svg version="1.1" id="Layer_1" xmlns:x="&ns_extend;" xmlns:i="&ns_ai;" xmlns:graph="&ns_graphs;"
	 xmlns="http://www.w3.org/2000/svg" xmlns:xlink="http://www.w3.org/1999/xlink" x="0px" y="0px" viewBox="0 0 26 27"
	 style="enable-background:new 0 0 26 27;" xml:space="preserve">
<style type="text/css">
	.st0{fill-rule:evenodd;clip-rule:evenodd;fill:#2C42BF;}
</style>
<metadata>
	<sfw  xmlns="&ns_sfw;">
		<slices></slices>
		<sliceSourceBounds  bottomLeftOrigin="true" height="25" width="25" x="0.5" y="1"></sliceSourceBounds>
	</sfw>
</metadata>
<g>
	<path class="st0" d="M13,1C6.1,1,0.5,6.6,0.5,13.5S6.1,26,13,26s12.5-5.6,12.5-12.5S19.9,1,13,1z M13,23.5c-5.5,0-10-4.5-10-10
		c0-5.6,4.5-10,10-10c5.6,0,10,4.5,10,10C23,19.1,18.5,23.5,13,23.5z"/>
	<circle class="st0" cx="13" cy="19.8" r="1.3"/>
	<path class="st0" d="M13,17.2L13,17.2c-0.7,0-1.2-0.6-1.2-1.2V7.2C11.8,6.6,12.3,6,13,6h0c0.7,0,1.2,0.6,1.2,1.2V16
		C14.2,16.7,13.7,17.2,13,17.2z"/>
</g>
</svg>
