<?xml version="1.0" encoding="utf-8"?>
<!-- Generator: Adobe Illustrator 27.2.0, SVG Export Plug-In . SVG Version: 6.00 Build 0)  -->
<!DOCTYPE svg PUBLIC "-//W3C//DTD SVG 1.1//EN" "http://www.w3.org/Graphics/SVG/1.1/DTD/svg11.dtd" [
	<!ENTITY ns_extend "http://ns.adobe.com/Extensibility/1.0/">
	<!ENTITY ns_ai "http://ns.adobe.com/AdobeIllustrator/10.0/">
	<!ENTITY ns_graphs "http://ns.adobe.com/Graphs/1.0/">
	<!ENTITY ns_vars "http://ns.adobe.com/Variables/1.0/">
	<!ENTITY ns_imrep "http://ns.adobe.com/ImageReplacement/1.0/">
	<!ENTITY ns_sfw "http://ns.adobe.com/SaveForWeb/1.0/">
	<!ENTITY ns_custom "http://ns.adobe.com/GenericCustomNamespace/1.0/">
	<!ENTITY ns_adobe_xpath "http://ns.adobe.com/XPath/1.0/">
]>
<svg version="1.1" id="Layer_1" xmlns:x="&ns_extend;" xmlns:i="&ns_ai;" xmlns:graph="&ns_graphs;"
	 xmlns="http://www.w3.org/2000/svg" xmlns:xlink="http://www.w3.org/1999/xlink" x="0px" y="0px" viewBox="0 0 32 32"
	 style="enable-background:new 0 0 32 32;" xml:space="preserve">
<style type="text/css">
	.st0{fill:#040231;}
</style>
<metadata>
	<sfw  xmlns="&ns_sfw;">
		<slices></slices>
		<sliceSourceBounds  bottomLeftOrigin="true" height="31.3" width="31.3" x="0.4" y="0.4"></sliceSourceBounds>
	</sfw>
</metadata>
<g>
	<path class="st0" d="M16,9.8c-1.7,0-3.1-1.4-3.1-3.1s1.4-3.1,3.1-3.1s3.1,1.4,3.1,3.1S17.7,9.8,16,9.8z M16,4.7
		c-1.1,0-2.1,0.9-2.1,2.1s0.9,2.1,2.1,2.1s2.1-0.9,2.1-2.1S17.1,4.7,16,4.7z"/>
	<path class="st0" d="M26.3,13.9c-0.7,0-1.2,0.4-1.5,1h-3.2v-1c0-2-1.6-3.6-3.6-3.6h-4.1c-2,0-3.6,1.6-3.6,3.6l0,0v1H7.2
		c-0.3-0.8-1.2-1.2-2-0.9S4,15.2,4.3,16c0.3,0.8,1.2,1.2,2,0.9C6.7,16.8,7,16.4,7.2,16h3.2c0,0.3,0.2,0.5,0.5,0.5s0.5-0.2,0.5-0.5
		h13.5c0.3,0.8,1.2,1.2,2,0.9s1.2-1.2,0.9-2C27.5,14.4,26.9,13.9,26.3,13.9z M5.7,16c-0.3,0-0.5-0.2-0.5-0.5S5.4,15,5.7,15
		c0.3,0,0.5,0.2,0.5,0.5S6,16,5.7,16z M11.4,14.5V14c0-1.4,1.2-2.6,2.6-2.6h4.1c1.4,0,2.6,1.2,2.6,2.6v1h-9.3
		C11.4,15,11.4,14.5,11.4,14.5z M26.3,16c-0.3,0-0.5-0.2-0.5-0.5S26,15,26.3,15s0.5,0.2,0.5,0.5S26.6,16,26.3,16z"/>
	<path class="st0" d="M11.9,20.6h-0.5c0-0.3-0.2-0.5-0.5-0.5s-0.5,0.2-0.5,0.5v0.5c0,0.3,0.2,0.5,0.5,0.5h1c0.3,0,0.5-0.2,0.5-0.5
		C12.4,20.9,12.2,20.6,11.9,20.6z"/>
	<path class="st0" d="M10.9,19.6c0.3,0,0.5-0.2,0.5-0.5v-1.5c0-0.3-0.2-0.5-0.5-0.5s-0.5,0.2-0.5,0.5v1.5
		C10.3,19.4,10.6,19.6,10.9,19.6z"/>
	<path class="st0" d="M18.1,21.7c0.3,0,0.5-0.2,0.5-0.5s-0.2-0.5-0.5-0.5h-1.5c-0.3,0-0.5,0.2-0.5,0.5s0.2,0.5,0.5,0.5H18.1z"/>
	<path class="st0" d="M21.1,16.1c-0.3,0-0.5,0.2-0.5,0.5v1.5c0,0.3,0.2,0.5,0.5,0.5s0.5-0.2,0.5-0.5v-1.5
		C21.7,16.3,21.4,16.1,21.1,16.1z"/>
	<path class="st0" d="M21.1,19.2c-0.3,0-0.5,0.2-0.5,0.5v1h-1c-0.3,0-0.5,0.2-0.5,0.5s0.2,0.5,0.5,0.5h1.5c0.3,0,0.5-0.2,0.5-0.5
		v-1.5C21.7,19.4,21.4,19.2,21.1,19.2z"/>
	<path class="st0" d="M13.9,26.8v-1.5c0-0.3-0.2-0.5-0.5-0.5s-0.5,0.2-0.5,0.5v1.5c0,0.3,0.2,0.5,0.5,0.5S13.9,27.1,13.9,26.8z"/>
	<path class="st0" d="M13.4,24.2c0.3,0,0.5-0.2,0.5-0.5v-2.1h1c0.3,0,0.5-0.2,0.5-0.5s-0.2-0.5-0.5-0.5h-1.5c-0.3,0-0.5,0.2-0.5,0.4
		v0.1v2.6C12.9,24,13.1,24.2,13.4,24.2z"/>
	<path class="st0" d="M18.6,25.3c-0.3,0-0.5,0.2-0.5,0.5v1.5h-1c-0.3,0-0.5,0.2-0.5,0.5s0.2,0.5,0.5,0.5h1.5c0.3,0,0.5-0.2,0.5-0.5
		v-2.1C19.1,25.5,18.9,25.3,18.6,25.3z"/>
	<path class="st0" d="M15.5,27.3H14c-0.3,0-0.5,0.2-0.5,0.5s0.2,0.5,0.5,0.5h1.5c0.3,0,0.5-0.2,0.5-0.5S15.8,27.3,15.5,27.3z"/>
	<path class="st0" d="M18.6,22.2c-0.3,0-0.5,0.2-0.5,0.5v1.5c0,0.3,0.2,0.5,0.5,0.5s0.5-0.2,0.5-0.5v-1.5
		C19.1,22.4,18.9,22.2,18.6,22.2z"/>
</g>
<g>
	<g>
		<path class="st0" d="M29.8,8c-0.5,0-0.8-0.3-0.8-0.8c0-2.4-2-4.4-4.4-4.4c-0.5,0-0.8-0.3-0.8-0.8V1.1c0-0.5,0.3-0.8,0.8-0.8
			c3.8,0,6.8,3,6.8,6.8c0,0.5-0.3,0.8-0.8,0.8H29.8z"/>
		<path class="st0" d="M30.9,7.3h-1.1l0,0c0-2.9-2.3-5.2-5.2-5.2l0,0V1.1l0,0C28.1,1.1,30.9,3.9,30.9,7.3L30.9,7.3z"/>
		<path class="st0" d="M24.7,31.6c-0.5,0-0.8-0.3-0.8-0.8v-1.1c0-0.5,0.3-0.8,0.8-0.8c2.4,0,4.4-2,4.4-4.4c0-0.5,0.3-0.8,0.8-0.8
			h1.1c0.5,0,0.8,0.3,0.8,0.8C31.6,28.4,28.4,31.6,24.7,31.6z"/>
		<path class="st0" d="M30.9,24.7c0,3.3-2.7,6.2-6.2,6.2l0,0v-1.1l0,0c2.9,0,5.2-2.3,5.2-5.2l0,0H30.9L30.9,24.7z"/>
	</g>
	<g>
		<path class="st0" d="M1.3,8C0.8,8,0.5,7.6,0.5,7.2c0-3.8,3-6.8,6.8-6.8c0.5,0,0.8,0.3,0.8,0.8V2c0,0.5-0.3,0.8-0.8,0.8
			c-2.4,0-4.4,2-4.4,4.4C2.9,7.6,2.6,8,2.2,8H1.3z"/>
		<path class="st0" d="M1.1,7.3c0-3.5,2.7-6.2,6.2-6.2l0,0v1.1l0,0c-2.9,0-5.2,2.3-5.2,5.2l0,0H1.1L1.1,7.3z"/>
		<path class="st0" d="M0.4,24.7c0-0.5,0.3-0.8,0.8-0.8h1.1c0.5,0,0.8,0.3,0.8,0.8c0,2.4,2,4.4,4.4,4.4c0.5,0,0.8,0.3,0.8,0.8v1.1
			c0,0.5-0.3,0.8-0.8,0.8C3.6,31.6,0.4,28.4,0.4,24.7z"/>
		<path class="st0" d="M1.1,24.7h1.1l0,0c0,2.9,2.3,5.2,5.2,5.2l0,0v1.1l0,0C3.9,30.9,1.1,28,1.1,24.7L1.1,24.7z"/>
	</g>
</g>
</svg>
