<?xml version="1.0" encoding="utf-8"?>
<!-- Generator: Adobe Illustrator 27.2.0, SVG Export Plug-In . SVG Version: 6.00 Build 0)  -->
<!DOCTYPE svg PUBLIC "-//W3C//DTD SVG 1.1//EN" "http://www.w3.org/Graphics/SVG/1.1/DTD/svg11.dtd" [
	<!ENTITY ns_extend "http://ns.adobe.com/Extensibility/1.0/">
	<!ENTITY ns_ai "http://ns.adobe.com/AdobeIllustrator/10.0/">
	<!ENTITY ns_graphs "http://ns.adobe.com/Graphs/1.0/">
	<!ENTITY ns_vars "http://ns.adobe.com/Variables/1.0/">
	<!ENTITY ns_imrep "http://ns.adobe.com/ImageReplacement/1.0/">
	<!ENTITY ns_sfw "http://ns.adobe.com/SaveForWeb/1.0/">
	<!ENTITY ns_custom "http://ns.adobe.com/GenericCustomNamespace/1.0/">
	<!ENTITY ns_adobe_xpath "http://ns.adobe.com/XPath/1.0/">
]>
<svg version="1.1" id="Layer_1" xmlns:x="&ns_extend;" xmlns:i="&ns_ai;" xmlns:graph="&ns_graphs;"
	 xmlns="http://www.w3.org/2000/svg" xmlns:xlink="http://www.w3.org/1999/xlink" x="0px" y="0px" viewBox="0 0 15 18"
	 style="enable-background:new 0 0 15 18;" xml:space="preserve">
<style type="text/css">
	.st0{fill:#040231;}
</style>
<metadata>
	<sfw  xmlns="&ns_sfw;">
		<slices></slices>
		<sliceSourceBounds  bottomLeftOrigin="true" height="17.6" width="14.8" x="0.1" y="0.2"></sliceSourceBounds>
	</sfw>
</metadata>
<g id="Layer_30">
	<path class="st0" d="M14.9,4.2c0-0.1-0.1-0.2-0.1-0.2l-3.6-3.6c-0.1-0.1-0.2-0.1-0.3-0.1H5.5C4.7,0.2,4,0.9,4,1.7v1.9H1.6
		c-0.8,0-1.5,0.7-1.5,1.5v11.2c0,0.8,0.7,1.5,1.5,1.5h7.9c0.8,0,1.5-0.7,1.5-1.5v-1.9h2.4c0.8,0,1.5-0.7,1.5-1.5L14.9,4.2
		C14.9,4.2,14.9,4.2,14.9,4.2z M11.3,1.7l2.1,2.1h-2.1V1.7z M10.1,16.3c0,0.3-0.3,0.6-0.6,0.6H1.6c-0.3,0-0.6-0.3-0.6-0.6V5.1
		c0-0.3,0.3-0.6,0.6-0.6H4v8.4c0,0.8,0.7,1.5,1.5,1.5h4.6L10.1,16.3z M13.4,13.5H5.5c-0.3,0-0.6-0.3-0.6-0.6V1.7
		c0-0.3,0.3-0.6,0.6-0.6h4.9v3.2c0,0.2,0.2,0.4,0.4,0.4H14v8.2C14,13.2,13.7,13.5,13.4,13.5z"/>
</g>
</svg>
