<?xml version="1.0" encoding="utf-8"?>
<!-- Generator: Adobe Illustrator 27.2.0, SVG Export Plug-In . SVG Version: 6.00 Build 0)  -->
<!DOCTYPE svg PUBLIC "-//W3C//DTD SVG 1.1//EN" "http://www.w3.org/Graphics/SVG/1.1/DTD/svg11.dtd" [
	<!ENTITY ns_extend "http://ns.adobe.com/Extensibility/1.0/">
	<!ENTITY ns_ai "http://ns.adobe.com/AdobeIllustrator/10.0/">
	<!ENTITY ns_graphs "http://ns.adobe.com/Graphs/1.0/">
	<!ENTITY ns_vars "http://ns.adobe.com/Variables/1.0/">
	<!ENTITY ns_imrep "http://ns.adobe.com/ImageReplacement/1.0/">
	<!ENTITY ns_sfw "http://ns.adobe.com/SaveForWeb/1.0/">
	<!ENTITY ns_custom "http://ns.adobe.com/GenericCustomNamespace/1.0/">
	<!ENTITY ns_adobe_xpath "http://ns.adobe.com/XPath/1.0/">
]>
<svg version="1.1" id="Layer_1" xmlns:x="&ns_extend;" xmlns:i="&ns_ai;" xmlns:graph="&ns_graphs;"
	 xmlns="http://www.w3.org/2000/svg" xmlns:xlink="http://www.w3.org/1999/xlink" x="0px" y="0px" viewBox="0 0 14 14"
	 style="enable-background:new 0 0 14 14;" xml:space="preserve">
<style type="text/css">
	.st0{fill:#040231;}
</style>
<metadata>
	<sfw  xmlns="&ns_sfw;">
		<slices></slices>
		<sliceSourceBounds  bottomLeftOrigin="true" height="13.2" width="13.2" x="0.4" y="0.4"></sliceSourceBounds>
	</sfw>
</metadata>
<g>
	<g>
		<g>
			<path class="st0" d="M11.7,2.3c-2.6-2.6-6.7-2.6-9.3,0C1.1,3.6,0.4,5.2,0.4,7s0.7,3.4,1.9,4.7c1.3,1.3,3,1.9,4.7,1.9
				s3.4-0.6,4.7-1.9C14.2,9.1,14.2,4.9,11.7,2.3z M10.9,10.9c-2.2,2.2-5.7,2.2-7.9,0C2,9.9,1.4,8.5,1.4,7S2,4.1,3.1,3.1
				c2.2-2.2,5.7-2.2,7.9,0C13.1,5.2,13.1,8.8,10.9,10.9z"/>
		</g>
	</g>
	<g>
		<g>
			<path class="st0" d="M9.2,8.4L7.8,7l1.4-1.4c0.2-0.2,0.2-0.5,0-0.7C9,4.6,8.7,4.6,8.5,4.8L7,6.2L5.6,4.8c-0.2-0.2-0.5-0.2-0.7,0
				C4.7,5,4.7,5.3,4.9,5.5L6.3,7L4.9,8.4c-0.2,0.2-0.2,0.5,0,0.7C5,9.2,5.1,9.3,5.2,9.3s0.3,0,0.4-0.1L7,7.7l1.4,1.4
				c0.1,0.1,0.2,0.1,0.4,0.1s0.3,0,0.4-0.1C9.4,8.9,9.4,8.6,9.2,8.4z"/>
		</g>
	</g>
</g>
</svg>
