<?xml version="1.0" encoding="utf-8"?>
<!-- Generator: Adobe Illustrator 27.2.0, SVG Export Plug-In . SVG Version: 6.00 Build 0)  -->
<!DOCTYPE svg PUBLIC "-//W3C//DTD SVG 1.1//EN" "http://www.w3.org/Graphics/SVG/1.1/DTD/svg11.dtd" [
	<!ENTITY ns_extend "http://ns.adobe.com/Extensibility/1.0/">
	<!ENTITY ns_ai "http://ns.adobe.com/AdobeIllustrator/10.0/">
	<!ENTITY ns_graphs "http://ns.adobe.com/Graphs/1.0/">
	<!ENTITY ns_vars "http://ns.adobe.com/Variables/1.0/">
	<!ENTITY ns_imrep "http://ns.adobe.com/ImageReplacement/1.0/">
	<!ENTITY ns_sfw "http://ns.adobe.com/SaveForWeb/1.0/">
	<!ENTITY ns_custom "http://ns.adobe.com/GenericCustomNamespace/1.0/">
	<!ENTITY ns_adobe_xpath "http://ns.adobe.com/XPath/1.0/">
]>
<svg version="1.1" id="Layer_1" xmlns:x="&ns_extend;" xmlns:i="&ns_ai;" xmlns:graph="&ns_graphs;"
	 xmlns="http://www.w3.org/2000/svg" xmlns:xlink="http://www.w3.org/1999/xlink" x="0px" y="0px" viewBox="0 0 29 31"
	 style="enable-background:new 0 0 29 31;" xml:space="preserve">
<style type="text/css">
	.st0{fill:#FFFFFF;}
</style>
<metadata>
	<sfw  xmlns="&ns_sfw;">
		<slices></slices>
		<sliceSourceBounds  bottomLeftOrigin="true" height="26.9" width="28.9" x="0" y="2.1"></sliceSourceBounds>
	</sfw>
</metadata>
<g>
	<polygon class="st0" points="27.4,28 27.4,13.3 22.7,13.3 22.7,28 20.4,28 20.4,18.4 15.7,18.4 15.7,28 13.3,28 13.3,10.5 
		8.6,10.5 8.6,28 6.3,28 6.3,15.8 1.6,15.8 1.6,28 0,28 0,28.9 29,28.9 29,28 	"/>
	<path class="st0" d="M3.9,12.8c1.2,0,2.1-1,2.1-2.1c0-0.4-0.1-0.8-0.4-1.2l4-3.6c0.3,0.2,0.8,0.4,1.2,0.4c0.4,0,0.7-0.1,1-0.3
		l4.3,4.9c-0.3,0.4-0.4,0.8-0.4,1.3c0,1.2,1,2.1,2.1,2.1c1.2,0,2.1-1,2.1-2.1c0-0.3-0.1-0.6-0.2-0.8l3.7-2.7C24,9.1,24.5,9.3,25,9.3
		c1.2,0,2.1-1,2.1-2.1S26.2,5,25,5c-1.2,0-2.1,1-2.1,2.1c0,0.3,0.1,0.6,0.2,0.8l-3.7,2.7c-0.4-0.3-0.9-0.5-1.4-0.5
		c-0.4,0-0.7,0.1-1,0.3l-4.3-4.9c0.3-0.4,0.4-0.8,0.4-1.3c0-1.2-1-2.1-2.1-2.1S8.8,3,8.8,4.2c0,0.4,0.1,0.7,0.3,1L5.1,8.9
		C4.7,8.7,4.4,8.6,3.9,8.6c-1.2,0-2.1,1-2.1,2.1S2.8,12.8,3.9,12.8z"/>
</g>
</svg>
