<?xml version="1.0" encoding="utf-8"?>
<!-- Generator: Adobe Illustrator 27.2.0, SVG Export Plug-In . SVG Version: 6.00 Build 0)  -->
<!DOCTYPE svg PUBLIC "-//W3C//DTD SVG 1.1//EN" "http://www.w3.org/Graphics/SVG/1.1/DTD/svg11.dtd" [
	<!ENTITY ns_extend "http://ns.adobe.com/Extensibility/1.0/">
	<!ENTITY ns_ai "http://ns.adobe.com/AdobeIllustrator/10.0/">
	<!ENTITY ns_graphs "http://ns.adobe.com/Graphs/1.0/">
	<!ENTITY ns_vars "http://ns.adobe.com/Variables/1.0/">
	<!ENTITY ns_imrep "http://ns.adobe.com/ImageReplacement/1.0/">
	<!ENTITY ns_sfw "http://ns.adobe.com/SaveForWeb/1.0/">
	<!ENTITY ns_custom "http://ns.adobe.com/GenericCustomNamespace/1.0/">
	<!ENTITY ns_adobe_xpath "http://ns.adobe.com/XPath/1.0/">
]>
<svg version="1.1" id="Layer_1" xmlns:x="&ns_extend;" xmlns:i="&ns_ai;" xmlns:graph="&ns_graphs;"
	 xmlns="http://www.w3.org/2000/svg" xmlns:xlink="http://www.w3.org/1999/xlink" x="0px" y="0px" viewBox="0 0 18 18"
	 style="enable-background:new 0 0 18 18;" xml:space="preserve">
<style type="text/css">
	.st0{fill:#040231;}
</style>
<metadata>
	<sfw  xmlns="&ns_sfw;">
		<slices></slices>
		<sliceSourceBounds  bottomLeftOrigin="true" height="17.8" width="17.8" x="0.1" y="0.1"></sliceSourceBounds>
	</sfw>
</metadata>
<g>
	<path class="st0" d="M15.6,8.5c-0.3,0-0.6,0.3-0.6,0.6v6.3c0,0.7-0.6,1.2-1.2,1.2H2.6c-0.7,0-1.2-0.6-1.2-1.2V4.3
		C1.3,3.6,1.9,3,2.6,3h6.3c0.3,0,0.6-0.3,0.6-0.6S9.3,1.8,8.9,1.8H2.6c-1.4,0-2.5,1.1-2.5,2.5v11.1c0,1.4,1.1,2.5,2.5,2.5h11.1
		c1.4,0,2.5-1.1,2.5-2.5V9.1C16.2,8.7,15.9,8.5,15.6,8.5C15.6,8.5,15.6,8.5,15.6,8.5L15.6,8.5z"/>
	<path class="st0" d="M17.4,1.9l-1.3-1.3c-0.7-0.6-1.7-0.6-2.4,0L7.2,7.1C7.1,7.2,7.1,7.4,7.1,7.6v2.8c0,0.3,0.3,0.6,0.6,0.6h2.8
		c0.2,0,0.3-0.1,0.4-0.2l6.5-6.5C18.1,3.6,18.1,2.5,17.4,1.9C17.4,1.9,17.4,1.9,17.4,1.9L17.4,1.9z M15.2,1.5l1.3,1.3
		c0.2,0.2,0.2,0.4,0,0.6c0,0,0,0,0,0l-0.3,0.3l-1.9-1.9l0.3-0.3C14.8,1.3,15.1,1.3,15.2,1.5z M10.2,9.7H8.3V7.8l5.1-5.1l1.9,1.9
		L10.2,9.7z"/>
</g>
</svg>
