<?xml version="1.0" encoding="utf-8"?>
<!-- Generator: Adobe Illustrator 27.2.0, SVG Export Plug-In . SVG Version: 6.00 Build 0)  -->
<!DOCTYPE svg PUBLIC "-//W3C//DTD SVG 1.1//EN" "http://www.w3.org/Graphics/SVG/1.1/DTD/svg11.dtd" [
	<!ENTITY ns_extend "http://ns.adobe.com/Extensibility/1.0/">
	<!ENTITY ns_ai "http://ns.adobe.com/AdobeIllustrator/10.0/">
	<!ENTITY ns_graphs "http://ns.adobe.com/Graphs/1.0/">
	<!ENTITY ns_vars "http://ns.adobe.com/Variables/1.0/">
	<!ENTITY ns_imrep "http://ns.adobe.com/ImageReplacement/1.0/">
	<!ENTITY ns_sfw "http://ns.adobe.com/SaveForWeb/1.0/">
	<!ENTITY ns_custom "http://ns.adobe.com/GenericCustomNamespace/1.0/">
	<!ENTITY ns_adobe_xpath "http://ns.adobe.com/XPath/1.0/">
]>
<svg version="1.1" id="Layer_1" xmlns:x="&ns_extend;" xmlns:i="&ns_ai;" xmlns:graph="&ns_graphs;"
	 xmlns="http://www.w3.org/2000/svg" xmlns:xlink="http://www.w3.org/1999/xlink" x="0px" y="0px" viewBox="0 0 17 17"
	 style="enable-background:new 0 0 17 17;" xml:space="preserve">
<style type="text/css">
	.st0{fill-rule:evenodd;clip-rule:evenodd;fill:#040231;}
</style>
<metadata>
	<sfw  xmlns="&ns_sfw;">
		<slices></slices>
		<sliceSourceBounds  bottomLeftOrigin="true" height="16.9" width="16.9" x="0.1" y="0.1"></sliceSourceBounds>
	</sfw>
</metadata>
<g id="Design">
	<g id="Single-Application" transform="translate(-1225.000000, -313.000000)">
		<g id="edit-icon" transform="translate(1225.000000, 313.000000)">
			<g id="Clip-2">
			</g>
			<path id="Fill-1" class="st0" d="M12.6,2.5c0.6,0.6,1.2,1.2,1.8,1.8c0.2-0.3,0.5-0.5,0.8-0.8c0.4-0.4,0.4-1.2,0-1.6
				c-0.4-0.5-1.1-0.6-1.6-0.3C13.2,1.9,12.9,2.3,12.6,2.5 M11.7,3.5C11.7,3.5,11.6,3.5,11.7,3.5C8.2,6.9,4.9,10.3,1.6,13.6
				c0,0-0.1,0.1-0.1,0.2c0,0.5,0,1,0,1.6c0,0,0,0.1,0,0.2h0.2c0.5,0,1,0,1.5,0c0.1,0,0.2,0,0.3-0.1c3.4-3.4,6.6-6.6,10-10l0.1-0.1
				C12.8,4.7,12.3,4.1,11.7,3.5 M2.2,16.9c-0.4,0-0.9,0-1.3,0c-0.5,0-0.8-0.3-0.8-0.8c0-0.9,0-1.8,0-2.7c0-0.2,0.1-0.4,0.3-0.6
				c4-4,7.9-7.9,12-12c0.7-0.7,1.6-1,2.7-0.8c1.2,0.3,2.1,1.5,2,2.7c0,0.7-0.3,1.3-0.8,1.8c-0.4,0.4-0.9,0.9-1.3,1.3
				c-3.6,3.6-7.1,7.1-10.7,10.7c-0.3,0.3-0.5,0.4-0.8,0.4C3.1,16.9,2.7,16.9,2.2,16.9"/>
		</g>
	</g>
</g>
</svg>
