<?xml version="1.0" encoding="utf-8"?>
<!-- Generator: Adobe Illustrator 27.2.0, SVG Export Plug-In . SVG Version: 6.00 Build 0)  -->
<!DOCTYPE svg PUBLIC "-//W3C//DTD SVG 1.1//EN" "http://www.w3.org/Graphics/SVG/1.1/DTD/svg11.dtd" [
	<!ENTITY ns_extend "http://ns.adobe.com/Extensibility/1.0/">
	<!ENTITY ns_ai "http://ns.adobe.com/AdobeIllustrator/10.0/">
	<!ENTITY ns_graphs "http://ns.adobe.com/Graphs/1.0/">
	<!ENTITY ns_vars "http://ns.adobe.com/Variables/1.0/">
	<!ENTITY ns_imrep "http://ns.adobe.com/ImageReplacement/1.0/">
	<!ENTITY ns_sfw "http://ns.adobe.com/SaveForWeb/1.0/">
	<!ENTITY ns_custom "http://ns.adobe.com/GenericCustomNamespace/1.0/">
	<!ENTITY ns_adobe_xpath "http://ns.adobe.com/XPath/1.0/">
]>
<svg version="1.1" id="Layer_1" xmlns:x="&ns_extend;" xmlns:i="&ns_ai;" xmlns:graph="&ns_graphs;"
	 xmlns="http://www.w3.org/2000/svg" xmlns:xlink="http://www.w3.org/1999/xlink" x="0px" y="0px" viewBox="0 0 21 21"
	 style="enable-background:new 0 0 21 21;" xml:space="preserve">
<style type="text/css">
	.st0{fill:#040231;}
</style>
<metadata>
	<sfw  xmlns="&ns_sfw;">
		<slices></slices>
		<sliceSourceBounds  bottomLeftOrigin="true" height="20.6" width="20.6" x="0.2" y="0.2"></sliceSourceBounds>
	</sfw>
</metadata>
<g>
	<path class="st0" d="M19.6,5.2c-0.3,0-0.5-0.2-0.5-0.5c0-1.6-1.3-2.9-2.9-2.9c-0.3,0-0.5-0.2-0.5-0.5V0.7c0-0.3,0.2-0.5,0.5-0.5
		c2.5,0,4.5,2,4.5,4.5c0,0.3-0.2,0.5-0.5,0.5H19.6z"/>
	<path class="st0" d="M20.3,4.8h-0.7l0,0c0-1.9-1.5-3.4-3.4-3.4l0,0V0.7l0,0C18.5,0.7,20.3,2.5,20.3,4.8L20.3,4.8z"/>
	<path class="st0" d="M16.2,20.8c-0.3,0-0.5-0.2-0.5-0.5v-0.7c0-0.3,0.2-0.5,0.5-0.5c1.6,0,2.9-1.3,2.9-2.9c0-0.3,0.2-0.5,0.5-0.5
		h0.7c0.3,0,0.5,0.2,0.5,0.5C20.8,18.7,18.7,20.8,16.2,20.8z"/>
	<path class="st0" d="M20.3,16.2c0,2.2-1.8,4.1-4.1,4.1l0,0v-0.7l0,0c1.9,0,3.4-1.5,3.4-3.4l0,0H20.3L20.3,16.2z"/>
</g>
<g>
	<path class="st0" d="M0.8,5.2C0.5,5.2,0.3,5,0.3,4.7c0-2.5,2-4.5,4.5-4.5c0.3,0,0.5,0.2,0.5,0.5v0.6c0,0.3-0.2,0.5-0.5,0.5
		c-1.6,0-2.9,1.3-2.9,2.9c0,0.3-0.2,0.5-0.5,0.5H0.8z"/>
	<path class="st0" d="M0.7,4.8c0-2.3,1.8-4.1,4.1-4.1l0,0v0.7l0,0c-1.9,0-3.4,1.5-3.4,3.4l0,0H0.7L0.7,4.8z"/>
	<path class="st0" d="M0.2,16.2c0-0.3,0.2-0.5,0.5-0.5h0.7c0.3,0,0.5,0.2,0.5,0.5c0,1.6,1.3,2.9,2.9,2.9c0.3,0,0.5,0.2,0.5,0.5v0.7
		c0,0.3-0.2,0.5-0.5,0.5C2.3,20.8,0.2,18.7,0.2,16.2z"/>
	<path class="st0" d="M0.7,16.2h0.7l0,0c0,1.9,1.5,3.4,3.4,3.4l0,0v0.7l0,0C2.5,20.3,0.7,18.4,0.7,16.2L0.7,16.2z"/>
</g>
<path class="st0" d="M15.7,10.2c0.6-1.1,0.8-3.3,0-5c-0.6-1.5-2.1-2.5-3.7-2.5c-3.2-0.1-4.2,1.4-4.5,2c-0.9,0-1.7,0.5-2.3,1.2
	c-0.7,1-0.7,2.4,0,4.4c-0.7,0.6-0.7,1.7-0.1,2.4C5.5,13,6,13.2,6.4,13.2h0.7c0.2,0.3,0.4,0.6,0.6,0.9v1.5c0,1.5,1.2,2.7,2.7,2.7
	s2.7-1.2,2.7-2.7v-1.5c0.2-0.3,0.4-0.5,0.6-0.9h0.9c0.9,0,1.7-0.7,1.7-1.7C16.3,11,16.1,10.6,15.7,10.2z M6.4,12.5c-0.6,0-1-0.5-1-1
	s0.5-1,1-1h0.3v1c0,0.3,0,0.7,0.1,1H6.4z M10.5,17.6c-1.1,0-2-0.9-2-2v-0.9c1.2,0.8,2.7,0.8,4,0v0.9C12.5,16.7,11.6,17.6,10.5,17.6z
	 M13.6,11.5c-0.1,1.7-1.4,3.1-3.1,3.1s-3-1.4-3-3V9.1c2.8-0.1,4.2-0.9,4.7-1.2c0.4,0.3,0.9,0.6,1.4,0.8V11.5z M14.6,12.5h-0.5
	c0.1-0.3,0.1-0.7,0.1-1v-1h0.3c0.6,0,1,0.5,1,1S15.1,12.5,14.6,12.5z M15.1,9.9c-0.2-0.1-0.4-0.1-0.6-0.1h-0.3V8.5
	c0-0.1-0.1-0.3-0.2-0.3c-0.6-0.2-1.1-0.5-1.6-0.9c-0.1-0.1-0.3-0.1-0.5,0c0,0-1.3,1.3-4.8,1.3c-0.2,0-0.3,0.2-0.3,0.3v1H6.4
	c-0.2,0-0.4,0-0.6,0.1c-0.5-1.7-0.5-2.9,0-3.7c0.7-0.9,1.9-0.9,2-0.9c0.2,0,0.3-0.1,0.3-0.2S8.7,3.3,12,3.4c1.4,0,2.6,0.8,3.1,2.1
	C15.8,7,15.7,9,15.1,9.9z"/>
</svg>
