<?xml version="1.0" encoding="utf-8"?>
<!-- Generator: Adobe Illustrator 27.2.0, SVG Export Plug-In . SVG Version: 6.00 Build 0)  -->
<!DOCTYPE svg PUBLIC "-//W3C//DTD SVG 1.1//EN" "http://www.w3.org/Graphics/SVG/1.1/DTD/svg11.dtd" [
	<!ENTITY ns_extend "http://ns.adobe.com/Extensibility/1.0/">
	<!ENTITY ns_ai "http://ns.adobe.com/AdobeIllustrator/10.0/">
	<!ENTITY ns_graphs "http://ns.adobe.com/Graphs/1.0/">
	<!ENTITY ns_vars "http://ns.adobe.com/Variables/1.0/">
	<!ENTITY ns_imrep "http://ns.adobe.com/ImageReplacement/1.0/">
	<!ENTITY ns_sfw "http://ns.adobe.com/SaveForWeb/1.0/">
	<!ENTITY ns_custom "http://ns.adobe.com/GenericCustomNamespace/1.0/">
	<!ENTITY ns_adobe_xpath "http://ns.adobe.com/XPath/1.0/">
]>
<svg version="1.1" id="Layer_1" xmlns:x="&ns_extend;" xmlns:i="&ns_ai;" xmlns:graph="&ns_graphs;"
	 xmlns="http://www.w3.org/2000/svg" xmlns:xlink="http://www.w3.org/1999/xlink" x="0px" y="0px" viewBox="0 0 74 60"
	 style="enable-background:new 0 0 74 60;" xml:space="preserve">
<style type="text/css">
	.st0{fill:#040231;}
</style>
<metadata>
	<sfw  xmlns="&ns_sfw;">
		<slices></slices>
		<sliceSourceBounds  bottomLeftOrigin="true" height="58.6" width="73.8" x="0.1" y="0.7"></sliceSourceBounds>
	</sfw>
</metadata>
<g>
	<path class="st0" d="M29.7,31c5.9,0,10.7-4.8,10.7-10.7S35.6,9.6,29.7,9.6S19,14.4,19,20.3C19,26.2,23.8,31,29.7,31z M29.7,12.7
		c4.2,0,7.6,3.4,7.6,7.6s-3.4,7.6-7.6,7.6s-7.6-3.4-7.6-7.6C22.2,16.1,25.5,12.7,29.7,12.7z"/>
	<path class="st0" d="M66,0.7H8c-4.4,0-7.9,3.5-7.9,7.9v42.7c0,4.4,3.5,7.9,7.9,7.9H66c4.4,0,7.9-3.5,7.9-7.9V8.6
		C73.9,4.3,70.3,0.7,66,0.7z M8,3.9H66c2.6,0,4.7,2.1,4.7,4.7v31.2l-9.5-13.4c-1.5-2.1-3.9-3.3-6.4-3.4c-2.5,0-5,1.2-6.5,3.2
		L37.6,41c-1.5,2.1-4.4,2.6-6.5,1.1l-8.1-5.4c-2.6-1.8-6.1-1.8-8.8,0l-11,7.3V8.6C3.3,6,5.4,3.9,8,3.9z M66,56.1H8
		c-2.6,0-4.7-2.1-4.7-4.7v-3.5l12.8-8.5c1.6-1.1,3.7-1,5.3,0l8.1,5.4c3.5,2.4,8.3,1.5,10.8-1.9l10.8-14.7c0.9-1.2,2.3-2,3.9-1.9
		c1.5,0,3,0.8,3.8,2l12.1,17.1v6C70.7,54,68.6,56.1,66,56.1z"/>
</g>
</svg>
