<?xml version="1.0" encoding="utf-8"?>
<!-- Generator: Adobe Illustrator 27.2.0, SVG Export Plug-In . SVG Version: 6.00 Build 0)  -->
<!DOCTYPE svg PUBLIC "-//W3C//DTD SVG 1.1//EN" "http://www.w3.org/Graphics/SVG/1.1/DTD/svg11.dtd" [
	<!ENTITY ns_extend "http://ns.adobe.com/Extensibility/1.0/">
	<!ENTITY ns_ai "http://ns.adobe.com/AdobeIllustrator/10.0/">
	<!ENTITY ns_graphs "http://ns.adobe.com/Graphs/1.0/">
	<!ENTITY ns_vars "http://ns.adobe.com/Variables/1.0/">
	<!ENTITY ns_imrep "http://ns.adobe.com/ImageReplacement/1.0/">
	<!ENTITY ns_sfw "http://ns.adobe.com/SaveForWeb/1.0/">
	<!ENTITY ns_custom "http://ns.adobe.com/GenericCustomNamespace/1.0/">
	<!ENTITY ns_adobe_xpath "http://ns.adobe.com/XPath/1.0/">
]>
<svg version="1.1" id="Layer_1" xmlns:x="&ns_extend;" xmlns:i="&ns_ai;" xmlns:graph="&ns_graphs;"
	 xmlns="http://www.w3.org/2000/svg" xmlns:xlink="http://www.w3.org/1999/xlink" x="0px" y="0px" viewBox="0 0 26 26"
	 style="enable-background:new 0 0 26 26;" xml:space="preserve">
<style type="text/css">
	.st0{fill:#040231;}
</style>
<metadata>
	<sfw  xmlns="&ns_sfw;">
		<slices></slices>
		<sliceSourceBounds  bottomLeftOrigin="true" height="25.8" width="25" x="0.5" y="0.1"></sliceSourceBounds>
	</sfw>
</metadata>
<path class="st0" d="M24.8,15l-1.1-0.9c-0.7-0.6-0.7-1.7,0-2.3l1.1-0.9c0.8-0.6,1-1.7,0.5-2.6l-2.1-3.7c-0.5-0.9-1.5-1.2-2.5-0.9
	l-1.3,0.5c-0.9,0.3-1.9-0.2-2-1.2l-0.2-1.4c-0.2-1-1-1.7-2-1.7h-4.2c-1,0-1.8,0.7-2,1.7L8.7,3.2c-0.2,0.9-1.1,1.5-2,1.2L5.3,3.8
	c-0.9-0.3-2,0-2.5,0.9L0.8,8.4C0.3,9.2,0.5,10.3,1.2,11l1.1,0.9c0.7,0.6,0.7,1.7,0,2.3L1.2,15c-0.8,0.6-1,1.7-0.5,2.6l2.1,3.7
	c0.5,0.9,1.5,1.2,2.5,0.9l1.3-0.5c0.9-0.3,1.9,0.2,2,1.2l0.2,1.4c0.2,1,1,1.7,2,1.7h4.2c1,0,1.8-0.7,2-1.7l0.2-1.4
	c0.2-0.9,1.1-1.5,2-1.2l1.3,0.5c0.9,0.3,2,0,2.5-0.9l2.1-3.7C25.7,16.8,25.5,15.7,24.8,15L24.8,15z M21.4,20.3l-1.3-0.5
	c-2.1-0.8-4.3,0.5-4.7,2.7l-0.2,1.4h-4.2l-0.2-1.4C10.3,20.3,8,19,5.9,19.8l-1.3,0.5l-2.1-3.7l1.1-0.9c1.7-1.4,1.7-4,0-5.4L2.5,9.4
	l2.1-3.7l1.3,0.5C8,7,10.3,5.7,10.7,3.5l0.2-1.4h4.2l0.2,1.4C15.7,5.7,18,7,20.1,6.2l1.3-0.5l2.1,3.7c0,0,0,0,0,0l-1.1,0.9
	c-1.7,1.4-1.7,4,0,5.4l1.1,0.9L21.4,20.3z M13,8c-2.7,0-5,2.2-5,5s2.2,5,5,5s5-2.2,5-5S15.7,8,13,8z M13,16c-1.6,0-3-1.3-3-3
	s1.3-3,3-3s3,1.3,3,3S14.6,16,13,16z"/>
</svg>
