<?xml version="1.0" encoding="utf-8"?>
<!-- Generator: Adobe Illustrator 27.2.0, SVG Export Plug-In . SVG Version: 6.00 Build 0)  -->
<!DOCTYPE svg PUBLIC "-//W3C//DTD SVG 1.1//EN" "http://www.w3.org/Graphics/SVG/1.1/DTD/svg11.dtd" [
	<!ENTITY ns_extend "http://ns.adobe.com/Extensibility/1.0/">
	<!ENTITY ns_ai "http://ns.adobe.com/AdobeIllustrator/10.0/">
	<!ENTITY ns_graphs "http://ns.adobe.com/Graphs/1.0/">
	<!ENTITY ns_vars "http://ns.adobe.com/Variables/1.0/">
	<!ENTITY ns_imrep "http://ns.adobe.com/ImageReplacement/1.0/">
	<!ENTITY ns_sfw "http://ns.adobe.com/SaveForWeb/1.0/">
	<!ENTITY ns_custom "http://ns.adobe.com/GenericCustomNamespace/1.0/">
	<!ENTITY ns_adobe_xpath "http://ns.adobe.com/XPath/1.0/">
]>
<svg version="1.1" id="Layer_1" xmlns:x="&ns_extend;" xmlns:i="&ns_ai;" xmlns:graph="&ns_graphs;"
	 xmlns="http://www.w3.org/2000/svg" xmlns:xlink="http://www.w3.org/1999/xlink" x="0px" y="0px" viewBox="0 0 15 20"
	 style="enable-background:new 0 0 15 20;" xml:space="preserve">
<style type="text/css">
	.st0{fill:#F24141;}
</style>
<metadata>
	<sfw  xmlns="&ns_sfw;">
		<slices></slices>
		<sliceSourceBounds  bottomLeftOrigin="true" height="18.3" width="14.8" x="0.1" y="0.9"></sliceSourceBounds>
	</sfw>
</metadata>
<g>
	<path class="st0" d="M10,7.5c-0.2,0-0.4,0.2-0.4,0.4V16c0,0.2,0.2,0.4,0.4,0.4c0.2,0,0.4-0.2,0.4-0.4V7.9C10.5,7.7,10.3,7.5,10,7.5
		z"/>
	<path class="st0" d="M5,7.5c-0.2,0-0.4,0.2-0.4,0.4V16c0,0.2,0.2,0.4,0.4,0.4s0.4-0.2,0.4-0.4V7.9C5.4,7.7,5.2,7.5,5,7.5z"/>
	<path class="st0" d="M1.3,6.3v10.5c0,0.6,0.2,1.2,0.6,1.6c0.4,0.4,1,0.7,1.5,0.7h8.1c0.6,0,1.1-0.2,1.5-0.7c0.4-0.4,0.6-1,0.6-1.6
		V6.3c0.8-0.2,1.3-1,1.2-1.8c-0.1-0.8-0.8-1.4-1.6-1.4h-2.2V2.6c0-0.4-0.2-0.9-0.5-1.2C10.3,1,9.9,0.9,9.4,0.9H5.6
		C5.1,0.9,4.7,1,4.4,1.4C4.1,1.7,3.9,2.1,3.9,2.6v0.5H1.7c-0.8,0-1.5,0.6-1.6,1.4C0,5.3,0.5,6.1,1.3,6.3z M11.5,18.3H3.5
		c-0.7,0-1.3-0.6-1.3-1.4V6.3h10.7v10.5C12.9,17.7,12.3,18.3,11.5,18.3z M4.8,2.6C4.8,2.3,4.8,2.1,5,2c0.2-0.2,0.4-0.2,0.6-0.2h3.8
		C9.6,1.7,9.8,1.8,10,2c0.2,0.2,0.2,0.4,0.2,0.6v0.5H4.8V2.6z M1.7,3.9h11.6c0.4,0,0.8,0.3,0.8,0.8s-0.3,0.8-0.8,0.8H1.7
		c-0.4,0-0.8-0.3-0.8-0.8S1.3,3.9,1.7,3.9z"/>
	<path class="st0" d="M7.5,7.5c-0.2,0-0.4,0.2-0.4,0.4V16c0,0.2,0.2,0.4,0.4,0.4s0.4-0.2,0.4-0.4V7.9C7.9,7.7,7.7,7.5,7.5,7.5z"/>
</g>
</svg>
