<?xml version="1.0" encoding="utf-8"?>
<!-- Generator: Adobe Illustrator 27.2.0, SVG Export Plug-In . SVG Version: 6.00 Build 0)  -->
<!DOCTYPE svg PUBLIC "-//W3C//DTD SVG 1.1//EN" "http://www.w3.org/Graphics/SVG/1.1/DTD/svg11.dtd" [
	<!ENTITY ns_extend "http://ns.adobe.com/Extensibility/1.0/">
	<!ENTITY ns_ai "http://ns.adobe.com/AdobeIllustrator/10.0/">
	<!ENTITY ns_graphs "http://ns.adobe.com/Graphs/1.0/">
	<!ENTITY ns_vars "http://ns.adobe.com/Variables/1.0/">
	<!ENTITY ns_imrep "http://ns.adobe.com/ImageReplacement/1.0/">
	<!ENTITY ns_sfw "http://ns.adobe.com/SaveForWeb/1.0/">
	<!ENTITY ns_custom "http://ns.adobe.com/GenericCustomNamespace/1.0/">
	<!ENTITY ns_adobe_xpath "http://ns.adobe.com/XPath/1.0/">
]>
<svg version="1.1" id="Layer_1" xmlns:x="&ns_extend;" xmlns:i="&ns_ai;" xmlns:graph="&ns_graphs;"
	 xmlns="http://www.w3.org/2000/svg" xmlns:xlink="http://www.w3.org/1999/xlink" x="0px" y="0px" viewBox="0 0 28 24"
	 style="enable-background:new 0 0 28 24;" xml:space="preserve">
<style type="text/css">
	.st0{fill:#040231;}
</style>
<metadata>
	<sfw  xmlns="&ns_sfw;">
		<slices></slices>
		<sliceSourceBounds  bottomLeftOrigin="true" height="23.9" width="27.4" x="0.3" y="0.1"></sliceSourceBounds>
	</sfw>
</metadata>
<g>
	<path class="st0" d="M26.4,11.5c-0.7,0-1.2,0.6-1.2,1.2V18c0,1.9-1.6,3.5-3.5,3.5H6.3c-1.9,0-3.5-1.6-3.5-3.5v-5.2
		c0-0.7-0.6-1.2-1.2-1.2S0.3,12,0.3,12.7V18c0,3.3,2.7,6,6,6h15.5c3.3,0,6-2.7,6-6v-5.2C27.7,12,27.1,11.5,26.4,11.5z"/>
	<path class="st0" d="M7.4,9.7l5.3-5.3V17c0,0.7,0.6,1.2,1.2,1.2s1.2-0.6,1.2-1.2V4.3l5.3,5.3c0.5,0.5,1.3,0.5,1.8,0
		c0.5-0.5,0.5-1.2,0-1.7l-7.5-7.5c-0.5-0.5-1.3-0.5-1.8,0L5.7,7.9c-0.5,0.5-0.5,1.3,0,1.8C6.2,10.1,6.9,10.1,7.4,9.7z"/>
</g>
</svg>
