<?xml version="1.0" encoding="utf-8"?>
<!-- Generator: Adobe Illustrator 27.2.0, SVG Export Plug-In . SVG Version: 6.00 Build 0)  -->
<!DOCTYPE svg PUBLIC "-//W3C//DTD SVG 1.1//EN" "http://www.w3.org/Graphics/SVG/1.1/DTD/svg11.dtd" [
	<!ENTITY ns_extend "http://ns.adobe.com/Extensibility/1.0/">
	<!ENTITY ns_ai "http://ns.adobe.com/AdobeIllustrator/10.0/">
	<!ENTITY ns_graphs "http://ns.adobe.com/Graphs/1.0/">
	<!ENTITY ns_vars "http://ns.adobe.com/Variables/1.0/">
	<!ENTITY ns_imrep "http://ns.adobe.com/ImageReplacement/1.0/">
	<!ENTITY ns_sfw "http://ns.adobe.com/SaveForWeb/1.0/">
	<!ENTITY ns_custom "http://ns.adobe.com/GenericCustomNamespace/1.0/">
	<!ENTITY ns_adobe_xpath "http://ns.adobe.com/XPath/1.0/">
]>
<svg version="1.1" id="Layer_1" xmlns:x="&ns_extend;" xmlns:i="&ns_ai;" xmlns:graph="&ns_graphs;"
	 xmlns="http://www.w3.org/2000/svg" xmlns:xlink="http://www.w3.org/1999/xlink" x="0px" y="0px" viewBox="0 0 23 23"
	 style="enable-background:new 0 0 23 23;" xml:space="preserve">
<style type="text/css">
	.st0{fill:#040231;}
</style>
<metadata>
	<sfw  xmlns="&ns_sfw;">
		<slices></slices>
		<sliceSourceBounds  bottomLeftOrigin="true" height="22.8" width="22.8" x="0.1" y="0.1"></sliceSourceBounds>
	</sfw>
</metadata>
<g id="g10334">
	<g>
		<g id="g10336">
			<g id="g10342" transform="translate(128,364)">
				<path class="st0" d="M-116.5-350.7c-3.6,0-6.6-3-6.6-6.6c0-3.6,3-6.6,6.6-6.6c3.6,0,6.6,3,6.6,6.6
					C-109.9-353.7-112.9-350.7-116.5-350.7z M-116.5-362.1c-2.6,0-4.8,2.2-4.8,4.8c0,2.6,2.2,4.8,4.8,4.8c2.6,0,4.8-2.2,4.8-4.8
					C-111.7-360-113.9-362.1-116.5-362.1z"/>
			</g>
			<g id="g10346" transform="translate(402.0977,207)">
				<path class="st0" d="M-381.9-184.1h-17.4c-1.5,0-2.7-1.2-2.7-2.7v-1.6c0-1.5,0.7-3,1.8-4c1-0.9,2.3-1.6,3.7-2.1
					c1.7-0.6,3.7-0.9,5.8-0.9c0.5,0,0.9,0.4,0.9,0.9s-0.4,0.9-0.9,0.9c-4.9,0-7.5,1.8-8.4,2.6c-0.8,0.7-1.2,1.6-1.2,2.7v1.6
					c0,0.5,0.4,0.9,0.9,0.9h17.4c0.5,0,0.9-0.4,0.9-0.9v-1.6c0-1-0.4-2-1.2-2.7c-0.6-0.5-1.4-1-2.3-1.4c-0.4-0.2-0.7-0.7-0.5-1.2
					c0.2-0.4,0.7-0.7,1.2-0.5c1.1,0.5,2,1,2.7,1.7c1.1,1,1.8,2.5,1.8,4v1.6C-379.2-185.3-380.4-184.1-381.9-184.1z"/>
			</g>
		</g>
	</g>
</g>
</svg>
