<?xml version="1.0" encoding="utf-8"?>
<!-- Generator: Adobe Illustrator 27.2.0, SVG Export Plug-In . SVG Version: 6.00 Build 0)  -->
<!DOCTYPE svg PUBLIC "-//W3C//DTD SVG 1.1//EN" "http://www.w3.org/Graphics/SVG/1.1/DTD/svg11.dtd" [
	<!ENTITY ns_extend "http://ns.adobe.com/Extensibility/1.0/">
	<!ENTITY ns_ai "http://ns.adobe.com/AdobeIllustrator/10.0/">
	<!ENTITY ns_graphs "http://ns.adobe.com/Graphs/1.0/">
	<!ENTITY ns_vars "http://ns.adobe.com/Variables/1.0/">
	<!ENTITY ns_imrep "http://ns.adobe.com/ImageReplacement/1.0/">
	<!ENTITY ns_sfw "http://ns.adobe.com/SaveForWeb/1.0/">
	<!ENTITY ns_custom "http://ns.adobe.com/GenericCustomNamespace/1.0/">
	<!ENTITY ns_adobe_xpath "http://ns.adobe.com/XPath/1.0/">
]>
<svg version="1.1" id="Layer_1" xmlns:x="&ns_extend;" xmlns:i="&ns_ai;" xmlns:graph="&ns_graphs;"
	 xmlns="http://www.w3.org/2000/svg" xmlns:xlink="http://www.w3.org/1999/xlink" x="0px" y="0px" viewBox="0 0 20 20"
	 style="enable-background:new 0 0 20 20;" xml:space="preserve">
<style type="text/css">
	.st0{fill:#EE404C;}
	.st1{fill:#FFFFFF;}
</style>
<metadata>
	<sfw  xmlns="&ns_sfw;">
		<slices></slices>
		<sliceSourceBounds  bottomLeftOrigin="true" height="17.6" width="19.8" x="0.1" y="1.2"></sliceSourceBounds>
	</sfw>
</metadata>
<g>
	<path class="st0" d="M8.5,2L0.3,16.3c-0.5,0.8-0.2,1.8,0.6,2.3c0.3,0.1,0.5,0.2,0.8,0.2h16.5c0.9,0,1.7-0.8,1.7-1.7
		c0-0.3-0.1-0.6-0.2-0.8L11.5,2C11,1.2,10,0.9,9.2,1.4C8.9,1.6,8.7,1.8,8.5,2z"/>
	<g>
		<path class="st1" d="M9.9,6.4h0.2c0.5,0,1,0.4,1,1V12c0,0.5-0.4,1-1,1H9.9c-0.5,0-1-0.4-1-1V7.4C8.9,6.9,9.4,6.4,9.9,6.4z"/>
		<circle class="st1" cx="10" cy="15.5" r="1.1"/>
	</g>
</g>
</svg>
