<?xml version="1.0" encoding="utf-8"?>
<svg viewBox="0 0 252 40" style="fill:none" xmlns="http://www.w3.org/2000/svg" xmlns:bx="https://boxy-svg.com">
  <g transform="matrix(0.019431, 0, 0, 0.017064, 5.92626, 3.730243)" bx:origin="0.450855 0.5">
    <path d="M 1526.441 473.628 C 1807.753 858.36 1418.1 968.091 1234.767 819.471 C 909.759 1252.82 927.812 402.784 515.995 893.086 C 252.014 713.725 335.875 738.76 515.995 473.628 C 696.127 208.495 1337.541 215.276 1526.441 473.628 Z" id="path3774" style="opacity:0.1;fill:#40bfef;stroke-width:1.26506555"/>
    <path d="M 1000.034 1833.396 C 713.864 1833.396 555.515 1629.303 438.51 1429.625 C 437.434 1427.791 405.681 1369.041 392.676 1338.541 C 353.181 1243.129 333.345 1142.708 333.345 1039.53 L 333.345 731.271 C 333.345 460.433 508.683 361.1 632.609 339.265 C 660.023 273.343 743.694 173.592 998.364 166.925 C 1195.537 161.093 1387.296 230.761 1511.462 351.764 C 1613.06 450.68 1666.724 581.437 1666.724 730.019 L 1666.724 1038.277 C 1666.724 1141.039 1646.888 1241.624 1607.721 1337.288 C 1592.717 1372.04 1560.382 1429.625 1556.714 1436.128 C 1431.801 1643.143 1278.627 1833.396 1000.034 1833.396 L 1000.034 1833.396 Z M 1001.704 291.838 C 1007.283 291.749 1013.039 291.673 1018.618 291.673 C 1174.626 291.673 1328.711 348.26 1424.299 441.343 C 1502.215 517.184 1541.723 614.354 1541.723 730.019 L 1541.723 836.132 C 1541.723 836.132 1443.553 835.108 1421.554 836.107 C 1412.053 836.613 1402.882 837.031 1380.629 837.031 C 1319.552 837.031 1225.621 716.609 1181.381 635.189 C 1168.541 611.684 1141.785 598.68 1115.712 603.525 C 1089.284 608.104 1068.702 629.104 1064.704 655.608 C 1063.869 660.769 1050.789 751.689 1082.706 854.615 C 890.113 794.777 807.618 587.269 803.696 577.186 C 792.943 549.013 763.695 532.264 733.94 537.931 C 704.363 543.434 682.768 569.267 682.768 599.439 C 682.768 756.686 499.688 841.775 498.018 842.521 L 458.346 861.13 L 458.346 731.271 C 458.346 474.438 660.44 460.269 683.11 459.51 C 714.863 458.839 741.354 431.172 744.187 399.508 C 747.363 364.592 805.189 297.088 1001.704 291.838 L 1001.704 291.838 Z M 508.012 1290.126 C 475.019 1210.541 458.346 1126.199 458.346 1039.454 L 458.346 997.251 L 548.937 956.453 C 556.768 953.024 693.863 890.277 765.2 761.772 C 841.534 867.949 977.364 995.455 1190.047 995.455 C 1213.463 995.455 1234.957 982.361 1245.621 961.526 C 1253.629 946.117 1254.54 928.28 1249.05 912.365 C 1288.963 941.778 1333.543 961.943 1380.629 961.943 C 1405.639 961.943 1416.279 961.462 1427.044 960.969 L 1427.462 960.944 C 1446.299 959.944 1541.723 961.526 1541.723 961.526 L 1541.723 1038.201 C 1541.723 1124.706 1525.049 1209.289 1492.474 1288.798 C 1479.962 1317.882 1448.715 1373.039 1448.715 1373.039 C 1323.878 1580.054 1205.202 1708.395 1000.034 1708.395 C 789.945 1708.395 666.689 1571.629 547.356 1368.13 C 547.356 1368.13 519.183 1316.377 508.012 1290.126 L 508.012 1290.126 Z" id="path3776" style="clip-rule:evenodd;fill:#40bfef;fill-rule:evenodd;stroke-width:1.26506555"/>
    <path d="M 1000.11 1537.915 C 917.577 1537.915 840.218 1504.846 782 1444.819 C 759.457 1421.504 760.089 1384.399 783.417 1361.767 C 806.821 1339.148 843.925 1339.856 866.469 1363.096 C 937.957 1437.14 1062.098 1437.228 1133.929 1363.109 C 1156.637 1339.844 1193.741 1339.313 1216.98 1361.768 C 1240.308 1384.311 1240.941 1421.491 1218.397 1444.819 C 1159.926 1504.847 1082.567 1537.915 1000.11 1537.915 L 1000.11 1537.915 Z" id="path3778" style="fill:#40bfef;stroke:#ffffff;stroke-width:7.59039307"/>
    <path d="M 117.196 113.4 L 113.4 113.4 L 113.4 117.196 L 113.4 304.704 C 113.4 334.964 88.858 359.506 58.598 359.506 C 28.337 359.506 3.795 334.964 3.795 304.704 L 3.795 58.598 C 3.795 28.337 28.337 3.795 58.598 3.795 L 304.678 3.795 C 334.951 3.795 359.481 28.325 359.481 58.598 C 359.481 88.858 334.951 113.4 304.678 113.4 L 117.196 113.4 Z M 1882.873 1886.668 L 1886.668 1886.668 L 1886.668 1882.873 L 1886.668 1695.365 C 1886.668 1665.105 1911.21 1640.562 1941.471 1640.562 C 1971.731 1640.562 1996.273 1665.105 1996.273 1695.365 L 1996.273 1941.471 C 1996.273 1971.731 1971.731 1996.273 1941.471 1996.273 L 1695.39 1996.273 C 1665.117 1996.273 1640.587 1971.731 1640.587 1941.471 C 1640.587 1911.21 1665.117 1886.668 1695.39 1886.668 L 1882.873 1886.668 Z M 113.4 1882.873 L 113.4 1886.668 L 117.196 1886.668 L 304.678 1886.668 C 334.951 1886.668 359.481 1911.21 359.481 1941.471 C 359.481 1971.731 334.951 1996.273 304.678 1996.273 L 58.598 1996.273 C 28.337 1996.273 3.795 1971.731 3.795 1941.471 L 3.795 1695.365 C 3.795 1665.105 28.337 1640.562 58.598 1640.562 C 88.858 1640.562 113.4 1665.105 113.4 1695.365 L 113.4 1882.873 Z M 1886.668 117.196 L 1886.668 113.4 L 1882.873 113.4 L 1695.39 113.4 C 1665.117 113.4 1640.587 88.858 1640.587 58.598 C 1640.587 28.337 1665.117 3.795 1695.39 3.795 L 1941.471 3.795 C 1971.731 3.795 1996.273 28.325 1996.273 58.598 L 1996.273 304.704 C 1996.273 334.964 1971.731 359.506 1941.471 359.506 C 1911.21 359.506 1886.668 334.964 1886.668 304.704 L 1886.668 117.196 Z" id="path3780" style="fill:#0082ca;stroke:#ffffff;stroke-width:7.59039307"/>
    <path d="M 2195.459 644.827 L 2195.459 1193.202 L 2278.585 1193.202 C 2348.538 1193.202 2399.868 1171.141 2432.573 1127.018 C 2465.279 1082.897 2481.633 1013.247 2481.633 918.069 C 2481.633 823.522 2465.279 754.345 2432.573 710.538 C 2399.868 666.731 2348.538 644.827 2278.585 644.827 L 2195.459 644.827 Z M 2125.959 565.407 L 2267.683 565.407 C 2366.254 565.407 2438.592 593.929 2484.698 650.973 C 2530.805 708.016 2553.858 797.048 2553.858 918.069 C 2553.858 1039.721 2530.691 1129.068 2484.358 1186.111 C 2438.025 1243.156 2365.8 1271.678 2267.683 1271.678 L 2125.959 1271.678 L 2125.959 565.407 Z M 2657.445 565.407 L 2979.049 565.407 L 2979.049 646.719 L 2726.944 646.719 L 2726.944 854.722 L 2968.829 854.722 L 2968.829 936.034 L 2726.944 936.034 L 2726.944 1191.312 L 2985.863 1191.312 L 2985.863 1271.678 L 2657.445 1271.678 L 2657.445 565.407 Z M 3138.508 565.407 L 3460.112 565.407 L 3460.112 646.719 L 3208.006 646.719 L 3208.006 854.722 L 3449.891 854.722 L 3449.891 936.034 L 3208.006 936.034 L 3208.006 1191.312 L 3466.926 1191.312 L 3466.926 1271.678 L 3138.508 1271.678 L 3138.508 565.407 Z M 3860.785 940.761 C 3875.776 947.694 3890.199 962.506 3904.052 985.198 C 3917.907 1007.889 3932.103 1039.09 3946.638 1078.8 L 4016.137 1271.678 L 3942.55 1271.678 L 3877.139 1091.092 C 3860.332 1043.187 3844.093 1011.671 3828.421 996.544 C 3812.749 981.416 3791.286 973.853 3764.031 973.853 L 3689.081 973.853 L 3689.081 1271.678 L 3619.582 1271.678 L 3619.582 565.407 L 3774.934 565.407 C 3833.077 565.407 3876.458 582.426 3905.075 616.464 C 3933.692 650.501 3948 701.556 3948 769.63 C 3948 813.752 3940.619 850.468 3925.856 879.778 C 3911.093 909.087 3889.403 929.415 3860.785 940.761 Z M 3689.081 644.827 L 3689.081 894.432 L 3774.934 894.432 C 3808.548 894.432 3833.759 883.874 3850.565 862.759 C 3867.372 841.643 3875.775 810.442 3875.775 769.157 C 3875.775 727.872 3867.372 696.829 3850.565 676.027 C 3833.759 655.227 3808.548 644.827 3774.934 644.827 L 3689.081 644.827 Z M 4437.953 565.407 L 4730.941 565.407 L 4730.941 646.719 L 4507.453 646.719 L 4507.453 854.722 L 4709.137 854.722 L 4709.137 934.142 L 4507.453 934.142 L 4507.453 1271.678 L 4437.953 1271.678 L 4437.953 565.407 Z M 5064.152 659.956 L 4970.804 1010.726 L 5158.181 1010.726 L 5064.152 659.956 Z M 5025.314 565.407 L 5103.671 565.407 L 5297.179 1271.678 L 5225.636 1271.678 L 5179.304 1090.147 L 4949.683 1090.147 L 4903.35 1271.678 L 4831.125 1271.678 L 5025.314 565.407 Z M 5750.998 620.245 L 5750.998 720.466 C 5727.378 690.84 5702.509 668.621 5676.39 653.81 C 5650.271 638.997 5622.448 631.59 5592.922 631.59 C 5534.778 631.59 5490.262 656.173 5459.374 705.338 C 5428.485 754.502 5413.041 825.728 5413.041 919.016 C 5413.041 1012.302 5428.485 1083.527 5459.374 1132.692 C 5490.262 1181.857 5534.778 1206.439 5592.922 1206.439 C 5622.448 1206.439 5650.271 1199.191 5676.39 1184.694 C 5702.509 1170.196 5727.378 1147.82 5750.998 1117.565 L 5750.998 1217.784 C 5726.469 1240.476 5700.805 1257.495 5674.005 1268.841 C 5647.204 1280.187 5618.814 1285.86 5588.834 1285.86 C 5511.613 1285.86 5450.971 1253.083 5406.908 1187.529 C 5362.847 1121.976 5340.816 1032.472 5340.816 919.016 C 5340.816 805.558 5362.847 716.211 5406.908 650.973 C 5450.971 585.735 5511.613 553.117 5588.834 553.117 C 5619.268 553.117 5647.999 558.632 5675.026 569.663 C 5702.054 580.693 5727.378 597.554 5750.998 620.245 Z M 5875.029 565.407 L 5944.529 565.407 L 5944.529 1271.678 L 5875.029 1271.678 L 5875.029 565.407 Z M 6292.736 659.956 L 6199.389 1010.726 L 6386.765 1010.726 L 6292.736 659.956 Z M 6253.898 565.407 L 6332.256 565.407 L 6525.763 1271.678 L 6454.22 1271.678 L 6407.887 1090.147 L 6178.266 1090.147 L 6131.934 1271.678 L 6059.709 1271.678 L 6253.898 565.407 Z M 6598.005 565.407 L 6667.505 565.407 L 6667.505 1191.312 L 6914.841 1191.312 L 6914.841 1271.678 L 6598.005 1271.678 L 6598.005 565.407 Z M 7594.897 940.761 C 7609.886 947.694 7624.308 962.506 7638.162 985.198 C 7652.017 1007.889 7666.212 1039.09 7680.748 1078.8 L 7750.248 1271.678 L 7676.66 1271.678 L 7611.248 1091.092 C 7594.442 1043.187 7578.202 1011.671 7562.531 996.544 C 7546.859 981.416 7525.396 973.853 7498.142 973.853 L 7423.192 973.853 L 7423.192 1271.678 L 7353.692 1271.678 L 7353.692 565.407 L 7509.044 565.407 C 7567.187 565.407 7610.567 582.426 7639.185 616.464 C 7667.803 650.501 7682.112 701.556 7682.112 769.63 C 7682.112 813.752 7674.73 850.468 7659.966 879.778 C 7645.203 909.087 7623.513 929.415 7594.897 940.761 Z M 7423.192 644.827 L 7423.192 894.432 L 7509.044 894.432 C 7542.658 894.432 7567.868 883.874 7584.675 862.759 C 7601.483 841.643 7609.886 810.442 7609.886 769.157 C 7609.886 727.872 7601.483 696.829 7584.675 676.027 C 7567.868 655.227 7542.658 644.827 7509.044 644.827 L 7423.192 644.827 Z M 7851.109 565.407 L 8172.714 565.407 L 8172.714 646.719 L 7920.609 646.719 L 7920.609 854.722 L 8162.494 854.722 L 8162.494 936.034 L 7920.609 936.034 L 7920.609 1191.312 L 8179.528 1191.312 L 8179.528 1271.678 L 7851.109 1271.678 L 7851.109 565.407 Z M 8713.75 620.245 L 8713.75 720.466 C 8690.13 690.84 8665.26 668.621 8639.141 653.81 C 8613.021 638.997 8585.199 631.59 8555.673 631.59 C 8497.53 631.59 8453.014 656.173 8422.125 705.338 C 8391.237 754.502 8375.793 825.728 8375.793 919.016 C 8375.793 1012.302 8391.237 1083.527 8422.125 1132.692 C 8453.014 1181.857 8497.53 1206.439 8555.673 1206.439 C 8585.199 1206.439 8613.021 1199.191 8639.141 1184.694 C 8665.26 1170.196 8690.13 1147.82 8713.75 1117.565 L 8713.75 1217.784 C 8689.221 1240.476 8663.556 1257.495 8636.756 1268.841 C 8609.956 1280.187 8581.565 1285.86 8551.586 1285.86 C 8474.364 1285.86 8413.722 1253.083 8369.66 1187.529 C 8325.598 1121.976 8303.568 1032.472 8303.568 919.016 C 8303.568 805.558 8325.598 716.211 8369.66 650.973 C 8413.722 585.735 8474.364 553.117 8551.586 553.117 C 8582.019 553.117 8610.75 558.632 8637.778 569.663 C 8664.806 580.693 8690.13 597.554 8713.75 620.245 Z M 9163.473 708.174 C 9163.473 708.174 9156.205 695.252 9141.67 669.409 C 9127.134 643.567 9094.882 630.645 9044.915 630.645 C 8994.948 630.645 8955.202 656.488 8925.677 708.174 C 8896.151 759.86 8881.388 830.141 8881.388 919.016 C 8881.388 1008.521 8896.151 1079.116 8925.677 1130.802 C 8955.202 1182.488 8994.948 1208.331 9044.915 1208.331 C 9094.882 1208.331 9134.402 1182.488 9163.473 1130.802 C 9192.545 1079.116 9207.081 1008.521 9207.081 919.016 C 9207.081 830.141 9192.545 759.86 9163.473 708.174 Z M 9044.915 553.117 C 9115.778 553.117 9172.559 586.365 9215.258 652.863 C 9257.957 719.362 9279.306 808.079 9279.306 919.016 C 9279.306 1030.581 9257.957 1119.613 9215.258 1186.111 C 9172.559 1252.61 9115.778 1285.86 9044.915 1285.86 C 8973.145 1285.86 8915.91 1252.768 8873.211 1186.584 C 8830.512 1120.401 8809.163 1031.527 8809.163 919.961 C 8809.163 808.394 8830.512 719.362 8873.211 652.863 C 8915.91 586.365 8973.145 553.117 9044.915 553.117 Z M 9729.038 1170.51 L 9729.038 981.416 L 9615.93 981.416 L 9615.93 902.942 L 9797.174 902.942 L 9797.174 1206.439 C 9770.373 1232.283 9740.961 1251.98 9708.936 1265.532 C 9676.913 1279.084 9642.731 1285.86 9606.391 1285.86 C 9526.899 1285.86 9464.781 1253.556 9420.037 1188.948 C 9375.294 1124.34 9352.922 1034.363 9352.922 919.016 C 9352.922 804.297 9375.294 714.634 9420.037 650.028 C 9464.781 585.42 9526.899 553.117 9606.391 553.117 C 9639.552 553.117 9671.008 558.789 9700.761 570.135 C 9730.513 581.481 9758.109 598.184 9783.546 620.245 L 9783.546 722.356 C 9758.109 692.101 9731.081 669.41 9702.464 654.282 C 9673.847 639.154 9643.639 631.59 9611.842 631.59 C 9550.065 631.59 9503.505 655.7 9472.163 703.92 C 9440.819 752.139 9425.147 823.837 9425.147 919.016 C 9425.147 1014.823 9440.819 1086.679 9472.163 1134.584 C 9503.505 1182.487 9550.065 1206.439 9611.842 1206.439 C 9636.371 1206.439 9658.175 1203.603 9677.253 1197.931 C 9696.331 1192.257 9713.593 1183.117 9729.038 1170.51 Z M 9910.985 565.407 L 10003.65 565.407 L 10229.864 1156.329 L 10229.864 565.407 L 10296.638 565.407 L 10296.638 1271.678 L 10203.973 1271.678 L 9977.758 680.756 L 9977.758 1271.678 L 9910.985 1271.678 L 9910.985 565.407 Z M 10493.579 565.407 L 10563.079 565.407 L 10563.079 1271.678 L 10493.579 1271.678 L 10493.579 565.407 Z M 10670.751 565.407 L 11100.693 565.407 L 11100.693 646.719 L 10920.812 646.719 L 10920.812 1271.678 L 10851.313 1271.678 L 10851.313 646.719 L 10670.751 646.719 L 10670.751 565.407 Z M 11178.392 565.407 L 11247.892 565.407 L 11247.892 1271.678 L 11178.392 1271.678 L 11178.392 565.407 Z M 11751.45 708.174 C 11751.45 708.174 11744.182 695.252 11729.647 669.409 C 11715.111 643.567 11682.859 630.645 11632.892 630.645 C 11582.926 630.645 11543.179 656.488 11513.654 708.174 C 11484.127 759.86 11469.364 830.141 11469.364 919.016 C 11469.364 1008.521 11484.127 1079.116 11513.654 1130.802 C 11543.179 1182.488 11582.926 1208.331 11632.892 1208.331 C 11682.859 1208.331 11722.379 1182.488 11751.45 1130.802 C 11780.522 1079.116 11795.058 1008.521 11795.058 919.016 C 11795.058 830.141 11780.522 759.86 11751.45 708.174 Z M 11632.892 553.117 C 11703.755 553.117 11760.535 586.365 11803.234 652.863 C 11845.933 719.362 11867.283 808.079 11867.283 919.016 C 11867.283 1030.581 11845.933 1119.613 11803.234 1186.111 C 11760.535 1252.61 11703.755 1285.86 11632.892 1285.86 C 11561.122 1285.86 11503.887 1252.768 11461.188 1186.584 C 11418.489 1120.401 11397.14 1031.527 11397.14 919.961 C 11397.14 808.394 11418.489 719.362 11461.188 652.863 C 11503.887 586.365 11561.122 553.117 11632.892 553.117 Z M 11969.516 565.407 L 12062.183 565.407 L 12288.396 1156.329 L 12288.396 565.407 L 12355.17 565.407 L 12355.17 1271.678 L 12262.503 1271.678 L 12036.29 680.756 L 12036.29 1271.678 L 11969.516 1271.678 L 11969.516 565.407 Z" style="fill: rgb(64, 191, 239); stroke: rgb(186, 218, 85); white-space: pre;"/>
  </g>
</svg>