<?xml version="1.0" encoding="utf-8"?>
<svg viewBox="0 0 5398 3394" fill="none" xmlns="http://www.w3.org/2000/svg">
  <path opacity="0.1" d="M3116.61 962.479C3338.98 1266.6 3030.97 1353.34 2886.05 1235.86C2629.14 1578.41 2643.41 906.484 2317.88 1294.05C2109.21 1152.27 2175.5 1172.06 2317.88 962.479C2460.27 752.901 2967.29 758.265 3116.61 962.479Z" fill="#40BFEF"/>
  <path fill-rule="evenodd" clip-rule="evenodd" d="M2700.5 2037.34C2474.29 2037.34 2349.12 1876.01 2256.63 1718.17C2255.78 1716.72 2230.68 1670.28 2220.4 1646.17C2189.18 1570.75 2173.5 1491.37 2173.5 1409.81V1166.14C2173.5 952.05 2312.1 873.527 2410.06 856.267C2431.73 804.16 2497.87 725.308 2699.18 720.038C2855.04 715.427 3006.62 770.498 3104.77 866.149C3185.08 944.342 3227.5 1047.7 3227.5 1165.15V1408.82C3227.5 1490.05 3211.82 1569.56 3180.86 1645.18C3169 1672.65 3143.44 1718.17 3140.54 1723.31C3041.8 1886.95 2920.72 2037.34 2700.5 2037.34ZM2701.82 818.785C2706.23 818.719 2710.78 818.653 2715.19 818.653C2838.51 818.653 2960.31 863.382 3035.87 936.964C3097.46 996.91 3128.69 1073.72 3128.69 1165.15V1249.03C3128.69 1249.03 3051.09 1248.22 3033.7 1249.01C3026.19 1249.41 3018.94 1249.74 3001.35 1249.74C2953.07 1249.74 2878.82 1154.55 2843.85 1090.19C2833.7 1071.61 2812.55 1061.33 2791.94 1065.16C2771.05 1068.78 2754.78 1085.38 2751.62 1106.33C2750.96 1110.41 2740.62 1182.28 2765.85 1263.64C2613.61 1216.34 2548.4 1052.31 2545.3 1044.34C2536.8 1022.07 2513.68 1008.83 2490.16 1013.31C2466.78 1017.66 2449.71 1038.08 2449.71 1061.93C2449.71 1186.23 2304.99 1253.49 2303.67 1254.08L2272.31 1268.79V1166.14C2272.31 963.117 2432.06 951.918 2449.98 951.325C2475.08 950.798 2496.02 928.928 2498.26 903.895C2500.77 876.293 2546.48 822.935 2701.82 818.785ZM2311.57 1607.9C2285.49 1544.99 2272.31 1478.32 2272.31 1409.75V1376.39L2343.92 1344.14C2350.11 1341.43 2458.48 1291.83 2514.87 1190.25C2575.21 1274.18 2682.58 1374.97 2850.7 1374.97C2869.21 1374.97 2886.2 1364.62 2894.63 1348.15C2900.96 1335.97 2901.68 1321.87 2897.34 1309.29C2928.89 1332.54 2964.13 1348.48 3001.35 1348.48C3021.12 1348.48 3029.53 1348.1 3038.04 1347.71L3038.37 1347.69C3053.26 1346.9 3128.69 1348.15 3128.69 1348.15V1408.76C3128.69 1477.14 3115.51 1544 3089.76 1606.85C3079.87 1629.84 3055.17 1673.44 3055.17 1673.44C2956.49 1837.08 2862.68 1938.53 2700.5 1938.53C2534.43 1938.53 2437 1830.42 2342.67 1669.56C2342.67 1669.56 2320.4 1628.65 2311.57 1607.9Z" fill="#40BFEF"/>
  <path d="M2700.56 1803.77C2635.32 1803.77 2574.17 1777.63 2528.15 1730.18C2510.33 1711.75 2510.83 1682.42 2529.27 1664.53C2547.77 1646.65 2577.1 1647.21 2594.92 1665.58C2651.43 1724.11 2749.56 1724.18 2806.34 1665.59C2824.29 1647.2 2853.62 1646.78 2871.99 1664.53C2890.43 1682.35 2890.93 1711.74 2873.11 1730.18C2826.89 1777.63 2765.74 1803.77 2700.56 1803.77Z" fill="#40BFEF" stroke="white" stroke-width="6"/>
  <path d="M2002.64 677.727H1999.64V680.727V828.948C1999.64 852.872 1980.24 872.267 1956.32 872.267C1932.4 872.267 1913 852.872 1913 828.948V634.408C1913 610.485 1932.4 591.09 1956.32 591.09H2150.84C2174.77 591.09 2194.16 610.485 2194.16 634.408C2194.16 658.331 2174.77 677.727 2150.84 677.727H2002.64ZM3398.36 2079.45H3401.36V2076.45V1928.23C3401.36 1904.31 3420.76 1884.91 3444.68 1884.91C3468.6 1884.91 3488 1904.31 3488 1928.23V2122.77C3488 2146.69 3468.6 2166.09 3444.68 2166.09H3250.16C3226.23 2166.09 3206.84 2146.69 3206.84 2122.77C3206.84 2098.85 3226.23 2079.45 3250.16 2079.45H3398.36ZM1999.64 2076.45V2079.45H2002.64H2150.84C2174.77 2079.45 2194.16 2098.85 2194.16 2122.77C2194.16 2146.69 2174.77 2166.09 2150.84 2166.09H1956.32C1932.4 2166.09 1913 2146.69 1913 2122.77V1928.23C1913 1904.31 1932.4 1884.91 1956.32 1884.91C1980.24 1884.91 1999.64 1904.31 1999.64 1928.23V2076.45ZM3401.36 680.727V677.727H3398.36H3250.16C3226.23 677.727 3206.84 658.331 3206.84 634.408C3206.84 610.485 3226.23 591.09 3250.16 591.09H3444.68C3468.6 591.09 3488 610.485 3488 634.408V828.948C3488 852.872 3468.6 872.267 3444.68 872.267C3420.76 872.267 3401.36 852.872 3401.36 828.948V680.727Z" fill="#0082CA" stroke="white" stroke-width="6"/>
  <path d="M 736.546 2615.005 L 736.546 2756.606 L 766.332 2756.606 Q 803.929 2756.606 821.507 2739.517 Q 839.085 2722.427 839.085 2685.562 Q 839.085 2648.94 821.507 2631.973 Q 803.929 2615.005 766.332 2615.005 Z M 711.644 2594.497 L 762.425 2594.497 Q 815.404 2594.497 840.184 2616.592 Q 864.964 2638.687 864.964 2685.562 Q 864.964 2732.681 840.062 2754.775 Q 815.16 2776.87 762.425 2776.87 L 711.644 2776.87 Z M 912.082 2594.497 L 1027.316 2594.497 L 1027.316 2615.493 L 936.984 2615.493 L 936.984 2669.204 L 1023.654 2669.204 L 1023.654 2690.2 L 936.984 2690.2 L 936.984 2756.118 L 1029.757 2756.118 L 1029.757 2776.87 L 912.082 2776.87 Z M 1094.457 2594.497 L 1209.691 2594.497 L 1209.691 2615.493 L 1119.359 2615.493 L 1119.359 2669.204 L 1206.029 2669.204 L 1206.029 2690.2 L 1119.359 2690.2 L 1119.359 2756.118 L 1212.132 2756.118 L 1212.132 2776.87 L 1094.457 2776.87 Z M 1363.242 2691.421 Q 1371.298 2694.106 1378.745 2702.896 Q 1386.191 2711.685 1394.003 2727.065 L 1418.906 2776.87 L 1392.539 2776.87 L 1369.101 2730.239 Q 1360.068 2711.685 1351.645 2705.825 Q 1343.222 2699.966 1328.574 2699.966 L 1301.718 2699.966 L 1301.718 2776.87 L 1276.816 2776.87 L 1276.816 2594.497 L 1332.48 2594.497 Q 1363.73 2594.497 1379.111 2607.681 Q 1394.492 2620.864 1394.492 2647.231 Q 1394.492 2664.321 1386.557 2675.674 Q 1378.623 2687.026 1363.242 2691.421 Z M 1301.718 2615.005 L 1301.718 2679.458 L 1332.48 2679.458 Q 1350.546 2679.458 1359.58 2671.279 Q 1368.613 2663.101 1368.613 2647.109 Q 1368.613 2631.118 1359.58 2623.062 Q 1350.546 2615.005 1332.48 2615.005 Z M 1590.05 2594.497 L 1695.031 2594.497 L 1695.031 2615.493 L 1614.953 2615.493 L 1614.953 2669.204 L 1687.218 2669.204 L 1687.218 2689.712 L 1614.953 2689.712 L 1614.953 2776.87 L 1590.05 2776.87 Z M 1824.429 2618.911 L 1790.982 2709.487 L 1858.121 2709.487 Z M 1810.513 2594.497 L 1838.589 2594.497 L 1907.925 2776.87 L 1882.291 2776.87 L 1865.689 2729.995 L 1783.414 2729.995 L 1766.812 2776.87 L 1740.933 2776.87 Z M 2080.535 2608.657 L 2080.535 2634.536 Q 2067.839 2623.062 2053.801 2617.324 Q 2039.763 2611.587 2023.894 2611.587 Q 1992.644 2611.587 1976.042 2630.63 Q 1959.441 2649.673 1959.441 2685.806 Q 1959.441 2721.938 1976.042 2740.981 Q 1992.644 2760.024 2023.894 2760.024 Q 2039.763 2760.024 2053.801 2754.409 Q 2067.839 2748.794 2080.535 2737.075 L 2080.535 2762.954 Q 2067.351 2771.743 2052.947 2776.138 Q 2038.542 2780.532 2022.429 2780.532 Q 1980.925 2780.532 1957.244 2755.142 Q 1933.562 2729.751 1933.562 2685.806 Q 1933.562 2641.86 1957.244 2616.592 Q 1980.925 2591.323 2022.429 2591.323 Q 2038.787 2591.323 2053.313 2595.596 Q 2067.839 2599.868 2080.535 2608.657 Z M 2134.972 2594.497 L 2159.875 2594.497 L 2159.875 2776.87 L 2134.972 2776.87 Z M 2294.648 2618.911 L 2261.201 2709.487 L 2328.339 2709.487 Z M 2280.732 2594.497 L 2308.808 2594.497 L 2378.144 2776.87 L 2352.509 2776.87 L 2335.908 2729.995 L 2253.632 2729.995 L 2237.031 2776.87 L 2211.152 2776.87 Z M 2414.035 2594.497 L 2438.937 2594.497 L 2438.937 2756.118 L 2527.56 2756.118 L 2527.56 2776.87 L 2414.035 2776.87 Z M 2791.226 2691.421 Q 2799.283 2694.106 2806.729 2702.896 Q 2814.175 2711.685 2821.988 2727.065 L 2846.89 2776.87 L 2820.523 2776.87 L 2797.085 2730.239 Q 2788.052 2711.685 2779.629 2705.825 Q 2771.207 2699.966 2756.558 2699.966 L 2729.703 2699.966 L 2729.703 2776.87 L 2704.8 2776.87 L 2704.8 2594.497 L 2760.464 2594.497 Q 2791.714 2594.497 2807.095 2607.681 Q 2822.476 2620.864 2822.476 2647.231 Q 2822.476 2664.321 2814.542 2675.674 Q 2806.607 2687.026 2791.226 2691.421 Z M 2729.703 2615.005 L 2729.703 2679.458 L 2760.464 2679.458 Q 2778.531 2679.458 2787.564 2671.279 Q 2796.597 2663.101 2796.597 2647.109 Q 2796.597 2631.118 2787.564 2623.062 Q 2778.531 2615.005 2760.464 2615.005 Z M 2893.035 2594.497 L 3008.269 2594.497 L 3008.269 2615.493 L 2917.937 2615.493 L 2917.937 2669.204 L 3004.607 2669.204 L 3004.607 2690.2 L 2917.937 2690.2 L 2917.937 2756.118 L 3010.71 2756.118 L 3010.71 2776.87 L 2893.035 2776.87 Z M 3212.128 2608.657 L 3212.128 2634.536 Q 3199.433 2623.062 3185.395 2617.324 Q 3171.357 2611.587 3155.488 2611.587 Q 3124.238 2611.587 3107.636 2630.63 Q 3091.035 2649.673 3091.035 2685.806 Q 3091.035 2721.938 3107.636 2740.981 Q 3124.238 2760.024 3155.488 2760.024 Q 3171.357 2760.024 3185.395 2754.409 Q 3199.433 2748.794 3212.128 2737.075 L 3212.128 2762.954 Q 3198.945 2771.743 3184.541 2776.138 Q 3170.136 2780.532 3154.023 2780.532 Q 3112.519 2780.532 3088.837 2755.142 Q 3065.156 2729.751 3065.156 2685.806 Q 3065.156 2641.86 3088.837 2616.592 Q 3112.519 2591.323 3154.023 2591.323 Q 3170.38 2591.323 3184.907 2595.596 Q 3199.433 2599.868 3212.128 2608.657 Z M 3383.265 2631.362 Q 3383.265 2631.362 3375.453 2621.353 Q 3367.64 2611.343 3340.785 2611.343 Q 3313.929 2611.343 3298.06 2631.362 Q 3282.191 2651.382 3282.191 2685.806 Q 3282.191 2720.474 3298.06 2740.493 Q 3313.929 2760.513 3340.785 2760.513 Q 3367.64 2760.513 3383.265 2740.493 Q 3398.89 2720.474 3398.89 2685.806 Q 3398.89 2651.382 3383.265 2631.362 Z M 3340.785 2591.323 Q 3378.871 2591.323 3401.82 2617.08 Q 3424.769 2642.837 3424.769 2685.806 Q 3424.769 2729.019 3401.82 2754.775 Q 3378.871 2780.532 3340.785 2780.532 Q 3302.21 2780.532 3279.261 2754.897 Q 3256.312 2729.263 3256.312 2686.05 Q 3256.312 2642.837 3279.261 2617.08 Q 3302.21 2591.323 3340.785 2591.323 Z M 3595.921 2750.747 L 3595.921 2701.919 L 3555.394 2701.919 L 3555.394 2681.655 L 3620.335 2681.655 L 3620.335 2760.024 Q 3605.931 2770.034 3588.719 2775.283 Q 3571.507 2780.532 3551.976 2780.532 Q 3509.251 2780.532 3485.204 2755.508 Q 3461.156 2730.483 3461.156 2685.806 Q 3461.156 2641.372 3485.204 2616.348 Q 3509.251 2591.323 3551.976 2591.323 Q 3569.798 2591.323 3585.79 2595.718 Q 3601.781 2600.112 3615.453 2608.657 L 3615.453 2635.024 Q 3601.781 2623.306 3586.4 2617.446 Q 3571.019 2611.587 3553.929 2611.587 Q 3520.726 2611.587 3503.88 2630.264 Q 3487.035 2648.94 3487.035 2685.806 Q 3487.035 2722.915 3503.88 2741.47 Q 3520.726 2760.024 3553.929 2760.024 Q 3567.113 2760.024 3577.367 2757.827 Q 3587.621 2755.63 3595.921 2750.747 Z M 3671.113 2594.497 L 3704.316 2594.497 L 3785.371 2747.085 L 3785.371 2594.497 L 3809.296 2594.497 L 3809.296 2776.87 L 3776.093 2776.87 L 3695.039 2624.282 L 3695.039 2776.87 L 3671.113 2776.87 Z M 3889.863 2594.497 L 3914.765 2594.497 L 3914.765 2776.87 L 3889.863 2776.87 Z M 3963.341 2594.497 L 4117.394 2594.497 L 4117.394 2615.493 L 4052.941 2615.493 L 4052.941 2776.87 L 4028.039 2776.87 L 4028.039 2615.493 L 3963.341 2615.493 Z M 4155.238 2594.497 L 4180.14 2594.497 L 4180.14 2776.87 L 4155.238 2776.87 Z M 4370.578 2631.362 Q 4370.578 2631.362 4362.765 2621.353 Q 4354.953 2611.343 4328.097 2611.343 Q 4301.242 2611.343 4285.373 2631.362 Q 4269.503 2651.382 4269.503 2685.806 Q 4269.503 2720.474 4285.373 2740.493 Q 4301.242 2760.513 4328.097 2760.513 Q 4354.953 2760.513 4370.578 2740.493 Q 4386.203 2720.474 4386.203 2685.806 Q 4386.203 2651.382 4370.578 2631.362 Z M 4328.097 2591.323 Q 4366.183 2591.323 4389.132 2617.08 Q 4412.082 2642.837 4412.082 2685.806 Q 4412.082 2729.019 4389.132 2754.775 Q 4366.183 2780.532 4328.097 2780.532 Q 4289.523 2780.532 4266.574 2754.897 Q 4243.625 2729.263 4243.625 2686.05 Q 4243.625 2642.837 4266.574 2617.08 Q 4289.523 2591.323 4328.097 2591.323 Z M 4458.707 2594.497 L 4491.91 2594.497 L 4572.964 2747.085 L 4572.964 2594.497 L 4596.89 2594.497 L 4596.89 2776.87 L 4563.687 2776.87 L 4482.632 2624.282 L 4482.632 2776.87 L 4458.707 2776.87 Z" style="fill: rgb(0, 130, 202); white-space: pre;"/>
</svg>